<?xml version="1.0" encoding="UTF-8"?><svg id="_レイヤー_2" xmlns="http://www.w3.org/2000/svg" xmlns:xlink="http://www.w3.org/1999/xlink" viewBox="0 0 395.42 376.74"><defs><style>.cls-1,.cls-2,.cls-3,.cls-4,.cls-5,.cls-6,.cls-7,.cls-8,.cls-9{fill:none;}.cls-10{stroke-width:2.56px;}.cls-10,.cls-2,.cls-3,.cls-11,.cls-4,.cls-12,.cls-5,.cls-13,.cls-6,.cls-14,.cls-15,.cls-16,.cls-17,.cls-18,.cls-8,.cls-9,.cls-19{stroke-linecap:round;}.cls-10,.cls-2,.cls-11,.cls-4,.cls-12,.cls-5,.cls-13,.cls-15,.cls-16,.cls-17,.cls-18,.cls-9,.cls-19{stroke-linejoin:round;}.cls-10,.cls-20,.cls-3,.cls-11,.cls-12,.cls-13,.cls-6,.cls-14,.cls-15,.cls-16,.cls-17,.cls-18,.cls-7,.cls-9,.cls-19{stroke:#0d0408;}.cls-10,.cls-20,.cls-11,.cls-21,.cls-12,.cls-14,.cls-15,.cls-17{fill:#fff;}.cls-22{clip-path:url(#clippath);}.cls-2{stroke:#979797;}.cls-2,.cls-4,.cls-19{stroke-width:1.28px;}.cls-20,.cls-3,.cls-6,.cls-14,.cls-7,.cls-8{stroke-miterlimit:10;}.cls-20,.cls-11,.cls-5,.cls-14,.cls-7{stroke-width:3.27px;}.cls-3{stroke-width:1.7px;}.cls-23{fill:#f4f4ee;}.cls-24{fill:#9dbeca;}.cls-25{fill:#bfbdbd;}.cls-26{fill:#0d0408;}.cls-4{stroke:#a9a8a8;}.cls-12{stroke-width:1.56px;}.cls-5{stroke:#8c2729;}.cls-13{fill:#ccbf3c;}.cls-13,.cls-6,.cls-15,.cls-16{stroke-width:2.45px;}.cls-16{fill:#e6e4e4;}.cls-17{stroke-width:1.63px;}.cls-18{fill:#0a0000;}.cls-18,.cls-9{stroke-width:1.52px;}.cls-8{stroke:#fff;stroke-width:3.43px;}.cls-27{fill:#aec6cf;opacity:.39;}.cls-19{fill:#852828;}</style><clipPath id="clippath"><ellipse class="cls-1" cx="200.64" cy="84.24" rx="64.61" ry="61.93" transform="translate(79.85 265.25) rotate(-79.06)"/></clipPath></defs><g id="_レイヤー_1-2"><g><ellipse class="cls-11" cx="22.8" cy="168.44" rx="21.75" ry="21.13" transform="translate(-146.91 158.85) rotate(-79.06)"/><ellipse class="cls-11" cx="372.62" cy="138.39" rx="21.75" ry="21.13" transform="translate(166.03 477.98) rotate(-79.06)"/><path class="cls-20" d="m188.97,275.48s-49.75,3.49-88.44,45.68c-.52.56-1.03,1.13-1.54,1.71,0,0-21.47-2.87-41.71,7.63,0,0-5.55-15.86-21.47-15.19,0,0-20.22,4.37-9.55,30.43,10.67,26.05,15.67,31.24,29.46,28.86,13.79-2.38,22.69-3.48,50.08-13.39,0,0,70.06-11.06,97.08-35.96,15.46-14.24,30.27-35.99,30.27-35.99l-1.07-12.04-43.11-1.73Z"/><path class="cls-20" d="m216.6,281.07s49.82-1.71,91.63,36.28c.56.51,1.11,1.02,1.67,1.54,0,0,21.16-5.1,42.14,3.25,0,0,4.29-16.37,20.2-17.37,0,0,20.48,2.25,11.88,29.31-8.6,27.06-13.17,32.74-27.09,31.82-13.92-.93-22.86-1.1-50.92-8.12,0,0-70.34-3.29-99.49-25.7-16.45-12.65-32.95-32.69-32.95-32.69l.13-12.1,42.8-6.21Z"/><path class="cls-16" d="m260.38,257.88l-96.67,4.9c-5.65.29-10.41-4.18-10.62-9.99l-5.09-135.75c-.22-5.8,4.19-10.74,9.84-11.02l96.67-4.9c5.65-.29,10.41,4.18,10.62,9.99l5.09,135.75c.22,5.8-4.19,10.74-9.84,11.02Z"/><path class="cls-10" d="m263.74,232.58l-106.53,5.39c-5.78.29-10.65-4.28-10.87-10.22l-4.85-129.3c-.22-5.94,4.28-10.99,10.06-11.28l106.53-5.39c5.78-.29,10.65,4.28,10.87,10.22l4.85,129.3c.22,5.94-4.28,10.99-10.06,11.28Z"/><path class="cls-11" d="m231.76,158.45s29.72-8.45,70.73-8.49c0,0,38.26-18.55,52.03-20.86l19.94,30.49s-17.69,22.4-56.08,34.03c0,0-33.97,14.74-60.96,14.37,0,0,5.23,59.24.28,80.32,0,0-33.21,24.09-115.93,2.21,0,0-6.16-49.17-1.97-79.13,0,0-22.86,6.53-61.15-1.33,0,0-40.78-2.27-53.14-20.15l14.45-35.15s35.61-.5,60.01,11.36c0,0,30.74-10.24,66.72-7.96"/><path class="cls-14" d="m231.98,158.44l-65.29-.26s-27.01-9.63-39.01-44.23c-5.4-15.56-6.15-32.49-2.51-48.68,5.59-24.86,22.72-61.18,75.07-63.19,0,0,58.9-8.47,77.38,48.73,6.26,19.36,5.96,40.42-.42,59.88-6.2,18.89-18.98,41.27-45.21,47.75Z"/><ellipse class="cls-25" cx="201.34" cy="83.78" rx="63.21" ry="62.04" transform="translate(61.48 251.11) rotate(-72.7)"/><polygon class="cls-19" points="198.03 180.9 197.32 171.93 203.71 171.3 204.44 179.93 198.03 180.9"/><polygon class="cls-19" points="207.25 180.81 206.54 171.84 212.92 171.21 213.66 179.84 207.25 180.81"/><path class="cls-2" d="m94.01,179.84s3.8,20.39-8.28,28.16"/><path class="cls-2" d="m83.2,188.14s2.68,11.9-5.71,17.64"/><path class="cls-2" d="m292.4,154.79s-5.73,13.01.8,24.01"/><path class="cls-2" d="m299.09,157.29s-2.74,7.67-.15,11.3"/><path class="cls-17" d="m169.23,189.06l-.36-12.63,21.57-1.65.07,11.41s-6.92,8.88-21.29,2.87Z"/><path class="cls-15" d="m169.86,223.24l.11,22.65s36.91,8.21,60.82-2.6l-.45-17.08-60.47-2.97Z"/><path class="cls-17" d="m195.83,189.39l-.36-12.63,21.35-1.05.3,10.81s-6.92,8.88-21.29,2.87Z"/><path class="cls-15" d="m238.34,189.25s1.99,27.42-.33,41.78c0,0-32.79,12.37-75.85,2.65,0,0-5.11-24.98.5-42.33,0,0,42.48-9.85,75.68-2.09Z"/><ellipse class="cls-13" cx="224.43" cy="209.49" rx="9.63" ry="9.36" transform="translate(-23.85 390.08) rotate(-79.06)"/><ellipse class="cls-13" cx="172.65" cy="221.36" rx="7.43" ry="7.22" transform="translate(-77.45 348.86) rotate(-79.06)"/><path class="cls-4" d="m230.19,162.57s-26.27,5.92-65.02-.25"/><path class="cls-4" d="m254.17,158.62s-9.17,18.87,1.79,42.56"/><path class="cls-4" d="m147.82,165.14s-8.09,17.19-5.08,39.58"/><path class="cls-4" d="m248.52,218.74s5.74-1.51,8.31.64"/><path class="cls-4" d="m250.98,223.28s2.72-1.27,5.96.9"/><path class="cls-2" d="m153.92,304.78s12.07,9.31,23.34,25.5"/><path class="cls-2" d="m250.47,296.86s-19.44,12.29-23.43,25.41"/><path class="cls-2" d="m292.73,311s-12.14,10.6-13.48,23.52"/><path class="cls-2" d="m60.07,335.77s7.05,16.18,7.92,25.32"/><path class="cls-2" d="m348.79,327.83s-6.22,14.49-7.36,26.2"/><path class="cls-5" d="m308.58,323.12s-10.04,16.14-6.8,29.78"/><path class="cls-5" d="m98.48,327.4s6.19,15.85,6.01,28.55"/><g class="cls-22"><g><path class="cls-24" d="m253.35,101.03c-1.33-5.73,2.62-13.14,2.53-28.87,0,0-1.76-17.74-6.43-26.98-4.67-9.24-13.56-26.22-35.79-24.65-22.23,1.57-11.96.95-11.96.95,0,0-25.65-8.07-40.76,9.23,0,0-13.67,11.76-15.54,35.71-2.73,34.97,10.16,37.48,8.08,39.8"/><path class="cls-23" d="m240.85,90.15s11.16,1.18,11.37,10.87c.21,9.69-10.25,11.23-12.12,11.42,0,0-2.78,31.93-31.96,33.03,0,0-22.68,2.26-31.95-6.62,0,0-11.18-8.56-14.09-26.39,0,0-11.03.19-12.44-10.86,0,0-.03-10.42,12.21-11.13l.02-7.4s-3.76-49.36,40.29-47.25c44.05,2.11,35.55,37.02,38.66,54.33Z"/><path class="cls-23" d="m218.07,142.25s-4.57,20.63,5.58,25.27c0,0-24.13,20.57-46.85-1.02,0,0,12.54-9.45,5.65-24.51l35.62.26Z"/><path class="cls-24" d="m211.21,40.32s4.18,30.07-9.82,37.7c0,0-11.27,4.5-19.88-.03,0,0-9.66,7.98-19,7.27l-7.21,1.73s5.16-59.08,45.86-55.02c40.7,4.06,36,25.43,44.92,51.52,0,0-2.41,4.52-11.95-4.71,0,0-15.78,4.32-32.74-.75"/><path class="cls-3" d="m194.9,84.5s-10.65-5.66-17.08,2.68c-1.58,2.04-2.5,4.53-2.87,7.11-.34,2.36-.45,5.5.7,8.06"/><ellipse class="cls-26" cx="218.53" cy="95.04" rx="5.17" ry="3.82" transform="translate(115.95 310.14) rotate(-88.01)"/><ellipse class="cls-26" cx="187.83" cy="94.99" rx="5.17" ry="3.82" transform="translate(86.36 279.41) rotate(-88.01)"/><path class="cls-3" d="m210.97,84.52s10.84-5.63,16.99,2.73c1.51,2.05,2.35,4.54,2.63,7.12.26,2.36.26,5.5-.97,8.05"/><line class="cls-3" x1="206.02" y1="105.64" x2="205.6" y2="106.94"/><path class="cls-3" d="m191.36,61.72s-5.23-3.85-11.45-1.47"/><path class="cls-3" d="m211.4,62.58s5.1-4.2,11.39-2.24"/><path class="cls-3" d="m241.36,111.88c6.52.01,11.89-4.85,11.99-10.85.1-6-5.11-10.87-11.63-10.89"/><path class="cls-3" d="m162.08,112.2c-6.52-.01-11.73-4.88-11.63-10.89s5.47-10.86,11.99-10.85"/><path class="cls-3" d="m241.6,105.31s.3,38.98-32.29,40.08"/><path class="cls-3" d="m193.32,145.36c-31.5-4.24-30.95-40.18-30.95-40.18"/><path class="cls-3" d="m210.86,40.73s5.75,24.96-9.44,37.87"/><path class="cls-3" d="m231.68,42.14s5.75,24.96-9.44,37.87"/><path class="cls-3" d="m193.64,41.02s3.8,25.39-12.31,37.01"/><path class="cls-3" d="m175.83,47.4s3.8,25.39-12.31,37.01"/><path class="cls-3" d="m191.15,20.03s-40.35-5.18-45.77,46.01"/><path class="cls-3" d="m213.54,20.55s30.43-6.43,40.32,39.34"/><path class="cls-3" d="m183.76,143.66s5.15,14.53-6.31,22.64c0,0,18.24,21.69,46.62,1.06,0,0-10.72-3.71-5.82-22.91"/><path class="cls-18" d="m222.19,119.44c.11,4.22-8.13,10.26-17.89,10.69-9.76.42-17.35-4.92-17.46-9.15s7.15-4.58,16.91-5c9.76-.42,18.33-.76,18.43,3.46Z"/><line class="cls-12" x1="187.51" y1="121.46" x2="221.1" y2="119.68"/><path class="cls-21" d="m187.6,121.01l34.59-1.57s2.22-5.63-19.38-3.42c-21.6,2.21-.51.02-.51.02,0,0-14.69-1.16-14.71,4.97Z"/><path class="cls-9" d="m222.19,119.44c.11,4.22-8.13,10.26-17.89,10.69-9.76.42-17.35-4.92-17.46-9.15s7.15-4.58,16.91-5c9.76-.42,18.33-.76,18.43,3.46Z"/></g></g><ellipse class="cls-27" cx="200.7" cy="83.94" rx="64.6" ry="62.48" transform="translate(83.58 267.27) rotate(-80.13)"/><ellipse class="cls-6" cx="201.97" cy="84.19" rx="64.6" ry="62.48" transform="translate(84.39 268.72) rotate(-80.13)"/><path class="cls-21" d="m217.18,338.82l-33.03-1.57-12.53-38.71s29.48,5.85,55.11,1.82l-9.54,38.46Z"/><path class="cls-7" d="m183.98,337.61s7.05,1.32,33.48.97"/><path class="cls-8" d="m230.35,36.14s11.23,4.25,18.37,21.46"/><ellipse class="cls-21" cx="250.97" cy="64.98" rx="1.84" ry="1.79" transform="translate(139.53 299.06) rotate(-79.06)"/></g></g></svg>