<?xml version="1.0" encoding="UTF-8"?><svg id="_レイヤー_2" xmlns="http://www.w3.org/2000/svg" viewBox="0 0 227.2 179.77"><defs><style>.cls-1{stroke-width:3.25px;}.cls-1,.cls-2,.cls-3,.cls-4,.cls-5,.cls-6,.cls-7{stroke:#090000;}.cls-1,.cls-2,.cls-4,.cls-5,.cls-6,.cls-7{stroke-miterlimit:10;}.cls-1,.cls-5{fill:#5f5f60;}.cls-8{fill:#fff;}.cls-2,.cls-3,.cls-4{stroke-width:4px;}.cls-2,.cls-3,.cls-6,.cls-7{fill:#a9a9a8;}.cls-3{stroke-linecap:round;stroke-linejoin:round;}.cls-4{fill:#454546;}.cls-5{stroke-width:1.91px;}.cls-6{stroke-width:3px;}.cls-7{stroke-width:3.74px;}</style></defs><g id="_レイヤー_1-2"><g><polygon class="cls-3" points="141.38 31.58 81.38 44.91 80.11 15.66 130.16 4.54 141.38 31.58"/><rect class="cls-2" x="11.54" y="35.09" width="30.41" height="24.59" rx="5.85" ry="5.85" transform="translate(-9.63 6.92) rotate(-12.52)"/><rect class="cls-2" x="50.89" y="27.47" width="20.35" height="24.59" rx="4.79" ry="4.79" transform="translate(-7.17 14.18) rotate(-12.52)"/><rect class="cls-2" x="152.11" y="3.88" width="30.41" height="24.59" rx="5.85" ry="5.85" transform="translate(.47 36.65) rotate(-12.52)"/><path class="cls-4" d="m16.42,34.14h195.97c1.66,0,3,1.34,3,3v114.85c0,3.6-2.92,6.52-6.52,6.52H18.94c-3.6,0-6.52-2.92-6.52-6.52V38.14c0-2.21,1.79-4,4-4Z" transform="translate(-18.17 26.98) rotate(-12.52)"/><path class="cls-2" d="m5.88,35.22h196.25c1.85,0,3.36,1.51,3.36,3.36v29.66H2.52v-29.66c0-1.85,1.51-3.36,3.36-3.36Z" transform="translate(-8.74 23.77) rotate(-12.52)"/><path class="cls-6" d="m24.35,142.9h202.97v7.48c0,3.76-3.05,6.82-6.82,6.82H31.16c-3.76,0-6.82-3.05-6.82-6.82v-7.48h0Z" transform="translate(-29.53 30.84) rotate(-12.52)"/><rect class="cls-6" x="152.15" y="29.68" width="33.51" height="15.9" rx="1.44" ry="1.44" transform="translate(-4.14 37.51) rotate(-12.52)"/><circle class="cls-7" cx="112.96" cy="92.06" r="44.86"/><circle class="cls-1" cx="112.96" cy="92.06" r="38.97"/><circle class="cls-5" cx="112.96" cy="92.06" r="35.56"/><circle class="cls-8" cx="122.36" cy="77.11" r="10.69"/></g></g></svg>