<?xml version="1.0" encoding="UTF-8"?><svg id="_レイヤー_2" xmlns="http://www.w3.org/2000/svg" viewBox="0 0 255.2 323.28"><defs><style>.cls-1{font-family:KozGoPr6N-Regular-83pv-RKSJ-H, 'Kozuka Gothic Pr6N';letter-spacing:-.28em;}.cls-1,.cls-2,.cls-3,.cls-4,.cls-5,.cls-6,.cls-7,.cls-8,.cls-9,.cls-10{fill:#fff;}.cls-1,.cls-2,.cls-3,.cls-4,.cls-7,.cls-8,.cls-9,.cls-10{font-size:16.46px;}.cls-11{fill:#909bb5;}.cls-11,.cls-12,.cls-13{stroke-width:2.51px;}.cls-11,.cls-12,.cls-13,.cls-14,.cls-15,.cls-16,.cls-17,.cls-18{stroke:#0a0000;}.cls-11,.cls-14,.cls-15,.cls-16,.cls-17,.cls-18{stroke-linecap:round;stroke-linejoin:round;}.cls-12{fill:#7e7e7e;}.cls-12,.cls-13{stroke-miterlimit:10;}.cls-13{fill:#e8e7e7;}.cls-19{fill:#d7d7d7;}.cls-14{fill:#782226;}.cls-14,.cls-16,.cls-17,.cls-18{stroke-width:.97px;}.cls-2{letter-spacing:-.03em;}.cls-2,.cls-3,.cls-7,.cls-8,.cls-9,.cls-10{font-family:Arial-Black, 'Arial Black';font-weight:800;}.cls-3{letter-spacing:-.03em;}.cls-15{stroke-width:1px;}.cls-15,.cls-16{fill:#a2a2a2;}.cls-4,.cls-5,.cls-6{font-family:KozGoPr6N-Bold-83pv-RKSJ-H, 'Kozuka Gothic Pr6N';font-weight:700;}.cls-4,.cls-7{letter-spacing:-.03em;}.cls-17{fill:#595c83;}.cls-18{fill:#2f2f2f;}.cls-5{font-size:27.85px;letter-spacing:-.03em;}.cls-6{font-size:18.6px;letter-spacing:-.03em;}.cls-8{letter-spacing:-.04em;}.cls-9{letter-spacing:-.04em;}.cls-10{letter-spacing:-.04em;}</style></defs><g id="_レイヤー_1-2"><g><path class="cls-12" d="m90.99,16C17.63,34.94,1.4,49.32,1.4,49.32l68.06,263.54c1.69,6.54,8.36,10.47,14.9,8.78l160.42-41.43c6.54-1.69,10.47-8.36,8.78-14.9L185.5,1.78s-21.16-4.72-94.51,14.22Z"/><rect class="cls-19" x="57.12" y="110.98" width="166.31" height="191.76" transform="translate(-47.27 41.64) rotate(-14.48)"/><g><rect class="cls-13" x="21.79" y="44.1" width="166.31" height="51.91" rx="5.52" ry="5.52" transform="translate(-14.18 28.47) rotate(-14.48)"/><rect class="cls-11" x="36.62" y="52.87" width="136.96" height="35.54" transform="translate(-14.32 28.52) rotate(-14.48)"/></g><rect class="cls-17" x="50.33" y="162.74" width="26.99" height="20.01" rx="4.75" ry="4.75" transform="translate(-41.16 21.45) rotate(-14.48)"/><rect class="cls-17" x="82.03" y="154.55" width="26.99" height="20.01" rx="4.75" ry="4.75" transform="translate(-38.11 29.11) rotate(-14.48)"/><rect class="cls-17" x="113.74" y="146.36" width="26.99" height="20.01" rx="4.75" ry="4.75" transform="translate(-35.06 36.78) rotate(-14.48)"/><rect class="cls-17" x="145.44" y="138.18" width="26.99" height="20.01" rx="4.75" ry="4.75" transform="translate(-32 44.45) rotate(-14.48)"/><rect class="cls-16" x="177.14" y="129.99" width="26.99" height="20.01" rx="4.75" ry="4.75" transform="translate(-28.95 52.11) rotate(-14.48)"/><rect class="cls-18" x="57.6" y="190.89" width="26.99" height="20.01" rx="4.75" ry="4.75" transform="translate(-47.97 24.16) rotate(-14.48)"/><rect class="cls-18" x="89.3" y="182.7" width="26.99" height="20.01" rx="4.75" ry="4.75" transform="translate(-44.92 31.82) rotate(-14.48)"/><rect class="cls-18" x="121.01" y="174.51" width="26.99" height="20.01" rx="4.75" ry="4.75" transform="translate(-41.86 39.49) rotate(-14.48)"/><rect class="cls-18" x="152.71" y="166.33" width="26.99" height="20.01" rx="4.75" ry="4.75" transform="translate(-38.81 47.16) rotate(-14.48)"/><rect class="cls-16" x="184.41" y="158.14" width="26.99" height="20.01" rx="4.75" ry="4.75" transform="translate(-35.76 54.83) rotate(-14.48)"/><rect class="cls-14" x="64.87" y="219.04" width="26.99" height="20.01" rx="4.75" ry="4.75" transform="translate(-54.78 26.87) rotate(-14.48)"/><rect class="cls-18" x="96.57" y="210.85" width="26.99" height="20.01" rx="4.75" ry="4.75" transform="translate(-51.73 34.54) rotate(-14.48)"/><rect class="cls-18" x="128.28" y="202.67" width="26.99" height="20.01" rx="4.75" ry="4.75" transform="translate(-48.67 42.2) rotate(-14.48)"/><rect class="cls-18" x="159.98" y="194.48" width="26.99" height="20.01" rx="4.75" ry="4.75" transform="translate(-45.62 49.87) rotate(-14.48)"/><rect class="cls-16" x="191.68" y="186.29" width="26.99" height="20.01" rx="4.75" ry="4.75" transform="translate(-42.56 57.54) rotate(-14.48)"/><rect class="cls-14" x="72.14" y="247.19" width="26.99" height="20.01" rx="4.75" ry="4.75" transform="translate(-61.59 29.58) rotate(-14.48)"/><rect class="cls-18" x="103.84" y="239" width="26.99" height="20.01" rx="4.75" ry="4.75" transform="translate(-58.53 37.25) rotate(-14.48)"/><rect class="cls-18" x="135.55" y="230.82" width="26.99" height="20.01" rx="4.75" ry="4.75" transform="translate(-55.48 44.92) rotate(-14.48)"/><rect class="cls-18" x="167.25" y="222.63" width="26.99" height="20.01" rx="4.75" ry="4.75" transform="translate(-52.43 52.58) rotate(-14.48)"/><rect class="cls-15" x="202.59" y="213.98" width="26.99" height="49.08" rx="3.78" ry="3.78" transform="translate(-52.78 61.6) rotate(-14.48)"/><rect class="cls-18" x="79.41" y="275.34" width="26.99" height="20.01" rx="4.75" ry="4.75" transform="translate(-68.4 32.29) rotate(-14.48)"/><rect class="cls-18" x="111.11" y="267.15" width="26.99" height="20.01" rx="4.75" ry="4.75" transform="translate(-65.34 39.96) rotate(-14.48)"/><rect class="cls-18" x="142.82" y="258.97" width="26.99" height="20.01" rx="4.75" ry="4.75" transform="translate(-62.29 47.63) rotate(-14.48)"/><rect class="cls-16" x="174.52" y="250.78" width="26.99" height="20.01" rx="4.75" ry="4.75" transform="translate(-59.23 55.29) rotate(-14.48)"/><rect class="cls-19" x="33.88" y="103.73" width="166.31" height="26.29" transform="translate(-25.5 32.98) rotate(-14.48)"/><text class="cls-7" transform="translate(113.99 256.18) rotate(-14.48)"><tspan x="0" y="0">1</tspan></text><text class="cls-7" transform="translate(89.1 292.35) rotate(-14.48)"><tspan x="0" y="0">0</tspan></text><text class="cls-2" transform="translate(117.88 284.92) rotate(-14.48) scale(.81 1)"><tspan x="0" y="0">00</tspan></text><text class="cls-1" transform="translate(150.3 276.55) rotate(-14.48)"><tspan x="0" y="0">・</tspan></text><text class="cls-7" transform="translate(145.61 248.01) rotate(-14.48)"><tspan x="0" y="0">2</tspan></text><text class="cls-7" transform="translate(177.23 239.85) rotate(-14.48)"><tspan x="0" y="0">3</tspan></text><text class="cls-7" transform="translate(106.74 228.09) rotate(-14.48)"><tspan x="0" y="0">4</tspan></text><text class="cls-7" transform="translate(138.36 219.93) rotate(-14.48)"><tspan x="0" y="0">5</tspan></text><text class="cls-7" transform="translate(169.97 211.76) rotate(-14.48)"><tspan x="0" y="0">6</tspan></text><text class="cls-7" transform="translate(99.41 199.72) rotate(-14.48)"><tspan x="0" y="0">7</tspan></text><text class="cls-10" transform="translate(63.39 209.03) rotate(-14.48)"><tspan x="0" y="0">+/-</tspan></text><text class="cls-9" transform="translate(71.08 236.78) rotate(-14.48) scale(.74 1)"><tspan x="0" y="0">AC</tspan></text><text class="cls-9" transform="translate(55.64 181.02) rotate(-14.48) scale(.74 1)"><tspan x="0" y="0">MC</tspan></text><text class="cls-9" transform="translate(87.03 172.92) rotate(-14.48) scale(.74 1)"><tspan x="0" y="0">MR</tspan></text><text class="cls-9" transform="translate(120.35 164.31) rotate(-14.48) scale(.74 1)"><tspan x="0" y="0">M+</tspan></text><text class="cls-9" transform="translate(152.47 156.02) rotate(-14.48) scale(.74 1)"><tspan x="0" y="0">M+</tspan></text><text class="cls-8" transform="translate(80.74 264.77) rotate(-14.48) scale(1.01 1)"><tspan x="0" y="0">C</tspan></text><text class="cls-7" transform="translate(131.03 191.56) rotate(-14.48)"><tspan x="0" y="0">8</tspan></text><text class="cls-7" transform="translate(162.65 183.39) rotate(-14.48)"><tspan x="0" y="0">9</tspan></text><text class="cls-4" transform="translate(191.99 175.81) rotate(-14.48)"><tspan x="0" y="0">×</tspan></text><text class="cls-4" transform="translate(184.73 147.68) rotate(-14.48)"><tspan x="0" y="0">÷</tspan></text><text class="cls-3" transform="translate(199.32 202.35) rotate(-14.48) scale(2.77 1)"><tspan x="0" y="0">-</tspan></text><text class="cls-5" transform="translate(208.82 248.81) rotate(-14.48) scale(1.1 1)"><tspan x="0" y="0">+</tspan></text><text class="cls-6" transform="translate(183.44 267.99) rotate(-14.48) scale(1.1 1)"><tspan x="0" y="0">=</tspan></text></g></g></svg>