<?xml version="1.0" encoding="UTF-8"?><svg id="_レイヤー_2" xmlns="http://www.w3.org/2000/svg" viewBox="0 0 259 178.84"><defs><style>.cls-1{fill:#e9e9e9;}.cls-2{fill:#59595a;}.cls-2,.cls-3,.cls-4,.cls-5{stroke-width:4.07px;}.cls-2,.cls-3,.cls-4,.cls-5,.cls-6{stroke:#090000;stroke-linecap:round;stroke-linejoin:round;}.cls-3{fill:#728bb7;}.cls-4{fill:#cbcbcb;}.cls-5,.cls-6{fill:none;}.cls-6{stroke-width:2.44px;}</style></defs><g id="_レイヤー_1-2"><g><polygon class="cls-4" points="108.21 2.03 80.13 96.85 228.06 130.22 256.97 25.19 108.21 2.03"/><polygon class="cls-3" points="113.44 11.11 89.22 91.26 219.38 119.21 243.93 32.01 113.44 11.11"/><polygon class="cls-4" points="228.06 130.22 227.92 139.04 150.63 176.8 2.03 134.92 2.52 126.82 80.13 96.85 228.06 130.22"/><polygon class="cls-2" points="81.39 104.11 48.72 117.76 169.15 148.52 204.81 132.15 81.39 104.11"/><polygon class="cls-5" points="76.04 130.63 59.02 136.26 105.03 149.55 119.37 142.49 76.04 130.63"/><line class="cls-6" x1="13.49" y1="131.14" x2="140.48" y2="166.79"/><line class="cls-6" x1="153.81" y1="164.71" x2="216.22" y2="134.54"/><polygon class="cls-1" points="208 27.62 99.17 60.62 113.44 11.11 208 27.62"/><polygon class="cls-5" points="113.44 11.11 89.22 91.26 219.38 119.21 243.93 32.01 113.44 11.11"/></g></g></svg>