<?xml version="1.0" encoding="UTF-8"?><svg id="_レイヤー_2" xmlns="http://www.w3.org/2000/svg" viewBox="0 0 442.84 189.09"><defs><style>.cls-1{stroke-width:2.93px;}.cls-1,.cls-2,.cls-3,.cls-4,.cls-5{stroke-linecap:round;}.cls-1,.cls-2,.cls-3,.cls-4,.cls-5,.cls-6{stroke:#090000;stroke-linejoin:round;}.cls-1,.cls-5{fill:none;}.cls-2{fill:#ede946;}.cls-2,.cls-3,.cls-6{stroke-width:4.11px;}.cls-3,.cls-6{fill:#ececec;}.cls-4{fill:#767b99;stroke-width:4.69px;}.cls-5{stroke-width:3.52px;}</style></defs><g id="_レイヤー_1-2"><g><polygon class="cls-4" points="420.62 95.47 264.39 134.26 284.5 39.99 440.49 2.35 420.62 95.47"/><polygon class="cls-6" points="287.23 142.9 214.16 153.05 231.34 79 304.41 68.85 287.23 142.9"/><polygon class="cls-6" points="152.82 111.01 213.95 152.3 231.13 78.26 170 36.97 152.82 111.01"/><polygon class="cls-3" points="170 36.97 231.13 78.26 304.41 68.85 240.2 26.5 170 36.97"/><polygon class="cls-4" points="170.69 150.58 2.35 186.75 22.44 92.47 190.53 57.45 170.69 150.58"/><line class="cls-1" x1="171.81" y1="108" x2="27.71" y2="138.72"/><line class="cls-1" x1="57.29" y1="100.61" x2="41.94" y2="166.79"/><line class="cls-1" x1="92.88" y1="93.06" x2="77.53" y2="159.23"/><line class="cls-1" x1="124.81" y1="87.65" x2="109.46" y2="153.83"/><line class="cls-1" x1="158.64" y1="81.42" x2="143.29" y2="147.59"/><line class="cls-1" x1="420.81" y1="50.71" x2="278.03" y2="87.08"/><line class="cls-1" x1="306.08" y1="47.84" x2="293.35" y2="114.57"/><line class="cls-1" x1="341.35" y1="38.89" x2="328.62" y2="105.62"/><line class="cls-1" x1="374.94" y1="31.94" x2="362.2" y2="98.68"/><line class="cls-1" x1="406.6" y1="24.66" x2="393.87" y2="91.39"/><ellipse class="cls-2" cx="280.34" cy="108.44" rx="56.4" ry="39.07" transform="translate(111.35 357.02) rotate(-76.94)"/><polyline class="cls-5" points="262.16 91.67 281.48 97.93 273.88 68.1"/><line class="cls-5" x1="258.45" y1="133.59" x2="281.48" y2="97.93"/></g></g></svg>