<?xml version="1.0" encoding="UTF-8"?><svg id="_レイヤー_2" xmlns="http://www.w3.org/2000/svg" xmlns:xlink="http://www.w3.org/1999/xlink" viewBox="0 0 467.44 431.44"><defs><style>.cls-1,.cls-2,.cls-3,.cls-4,.cls-5,.cls-6,.cls-7,.cls-8,.cls-9{fill:none;}.cls-2{stroke:#a9a9a8;}.cls-2,.cls-10,.cls-11,.cls-12,.cls-13,.cls-14,.cls-4,.cls-15,.cls-5,.cls-6,.cls-16,.cls-7,.cls-17,.cls-18,.cls-8,.cls-9{stroke-linecap:round;}.cls-2,.cls-10,.cls-13,.cls-14,.cls-15,.cls-16,.cls-7,.cls-17,.cls-18,.cls-9{stroke-linejoin:round;}.cls-2,.cls-17,.cls-9{stroke-width:1.49px;}.cls-10{fill:#d5c637;}.cls-10,.cls-11,.cls-12,.cls-3,.cls-13,.cls-14,.cls-4,.cls-15,.cls-5,.cls-19,.cls-16,.cls-17,.cls-18,.cls-8{stroke:#090000;}.cls-10,.cls-13,.cls-14,.cls-8{stroke-width:2.86px;}.cls-11,.cls-12,.cls-3,.cls-4,.cls-5,.cls-19,.cls-6,.cls-8{stroke-miterlimit:10;}.cls-11,.cls-3,.cls-19,.cls-16,.cls-7{stroke-width:3.81px;}.cls-11,.cls-13,.cls-20,.cls-15,.cls-19,.cls-16,.cls-18{fill:#fff;}.cls-12,.cls-4{stroke-width:1.62px;}.cls-12,.cls-21{fill:#090000;}.cls-22{clip-path:url(#clippath);}.cls-14{fill:#e7e5e5;}.cls-23{fill:#f6f5ef;}.cls-24{fill:#9b2327;}.cls-25{fill:#bfbdbd;}.cls-26{fill:#ad7d91;}.cls-15{stroke-width:1.91px;}.cls-5{stroke-width:2px;}.cls-6{stroke:#fff;stroke-width:4px;}.cls-7{stroke:#932428;}.cls-17{fill:#8c2629;}.cls-18{stroke-width:2.98px;}.cls-27{fill:#b3cbd4;opacity:.39;}.cls-9{stroke:#979797;}</style><clipPath id="clippath"><circle class="cls-1" cx="238.51" cy="96.82" r="74.28"/></clipPath></defs><g id="_レイヤー_1-2"><g><g><circle class="cls-16" cx="26.92" cy="191.28" r="25.01"/><circle class="cls-16" cx="440.52" cy="161.63" r="25.01"/><path class="cls-19" d="m223.22,316.82s-58.81,3.31-104.61,51.33c-.61.64-1.22,1.29-1.82,1.94,0,0-25.38-3.61-49.32,8.19,0,0-6.54-18.33-25.36-17.79,0,0-23.91,4.75-11.33,34.89,12.58,30.14,18.48,36.17,34.78,33.64,16.3-2.54,26.82-3.69,59.22-14.7,0,0,82.84-11.75,114.81-40.02,18.29-16.17,35.83-41,35.83-41l-1.25-13.87-50.96-2.6Z"/><path class="cls-19" d="m255.89,323.64s58.89-1.27,108.28,43.05c.66.59,1.31,1.19,1.97,1.8,0,0,25.03-5.57,49.81,4.33,0,0,5.09-18.78,23.9-19.71,0,0,24.21,2.88,14,33.9-10.2,31.02-15.62,37.5-32.07,36.23-16.45-1.27-27.03-1.59-60.19-10.06,0,0-83.14-4.78-117.57-30.98-19.43-14.79-38.91-38.09-38.91-38.09l.17-13.93,50.6-6.55Z"/><rect class="cls-14" x="177.87" y="119.14" width="138.57" height="180.62" rx="12.1" ry="12.1" transform="translate(-7.65 9.37) rotate(-2.14)"/><rect class="cls-18" x="170.06" y="97.15" width="150.8" height="173.76" rx="12.38" ry="12.38" transform="translate(-6.7 9.29) rotate(-2.14)"/><path class="cls-16" d="m273.96,182.73s35.14-9.31,83.63-8.77c0,0,45.25-20.81,61.53-23.27l23.53,35.37s-20.94,25.54-66.34,38.38c0,0-40.18,16.48-72.08,15.68,0,0,6.1,68.25.22,92.44,0,0-39.29,27.26-137.05.91,0,0-7.21-56.67-2.22-91.1,0,0-27.03,7.2-72.29-2.39,0,0-48.2-3.18-62.8-23.94l17.12-40.25s42.09-.07,70.93,13.92c0,0,36.36-11.35,78.88-8.22"/><path class="cls-11" d="m274.22,182.72l-77.19-1.23s-31.92-11.46-46.06-51.45c-6.36-17.99-7.23-37.48-2.91-56.06,6.64-28.53,26.94-70.09,88.83-71.67,0,0,69.64-8.92,91.41,57.18,7.37,22.37,7,46.6-.58,68.91-7.35,21.65-22.49,47.23-53.51,54.32Z"/><ellipse class="cls-25" cx="238.11" cy="96.36" rx="72.63" ry="73.47" transform="translate(137.98 332.91) rotate(-89.09)"/><polygon class="cls-17" points="234.06 208.09 233.23 197.75 240.79 197.12 241.64 207.06 234.06 208.09"/><polygon class="cls-17" points="244.96 208.12 244.13 197.79 251.68 197.15 252.54 207.09 244.96 208.12"/><path class="cls-9" d="m111.09,205.4s4.46,23.52-9.83,32.3"/><path class="cls-9" d="m98.31,214.8s3.16,13.74-6.77,20.23"/><path class="cls-9" d="m345.65,179.37s-6.79,14.89.91,27.64"/><path class="cls-9" d="m353.57,182.35s-3.25,8.79-.2,13"/><path class="cls-15" d="m200,217.08l-.41-14.54,25.5-1.59.07,13.13s-8.19,10.12-25.17,3Z"/><path class="cls-13" d="m200.7,256.42l.1,26.07s43.63,9.96,71.9-2.13l-.51-19.67-71.49-4.27Z"/><path class="cls-15" d="m231.45,217.83l-.41-14.54,25.24-.9.34,12.44s-8.19,10.12-25.17,3Z"/><path class="cls-13" d="m281.71,218.27s2.32,31.59-.44,48.08c0,0-38.78,13.77-89.67,1.98,0,0-6.01-28.82.65-48.72,0,0,50.23-10.74,89.47-1.34Z"/><circle class="cls-10" cx="265.23" cy="241.36" r="11.08"/><circle class="cls-10" cx="204" cy="254.29" r="8.54"/><path class="cls-2" d="m272.1,187.45s-31.07,6.45-76.87-1.2"/><path class="cls-2" d="m300.45,183.24s-10.86,21.59,2.06,49.01"/><path class="cls-2" d="m174.73,189.24s-9.59,19.67-6.06,45.48"/><path class="cls-2" d="m293.7,252.36s6.78-1.66,9.82.85"/><path class="cls-2" d="m296.61,257.62s3.22-1.43,7.05,1.12"/><path class="cls-9" d="m181.75,350.05s14.25,10.89,27.56,29.68"/><path class="cls-9" d="m295.9,342.3s-22.99,13.87-27.73,28.92"/><path class="cls-9" d="m345.84,359.16s-14.36,12.03-15.96,26.88"/><path class="cls-9" d="m70.76,384.38s8.31,18.72,9.33,29.26"/><path class="cls-9" d="m412.09,379.32s-7.37,16.59-8.74,30.05"/><path class="cls-7" d="m364.57,373.34s-11.89,18.43-8.08,34.18"/><path class="cls-7" d="m116.18,375.29s7.29,18.33,7.07,32.95"/><g class="cls-22"><g><path class="cls-26" d="m221.76,181l49.77,1.27s21.11,3.53,27.52-1.07c0,0,12.25,3.75,20.8.81,0,0,15.25-16.99,4.05-35.86-11.2-18.87-12.81-18.41-14.41-25.04-1.6-6.62-4.72-19.15-4.85-37.26,0,0-2.14-20.46-7.74-31.18-5.6-10.73-16.28-30.42-42.9-29-26.62,1.42-14.33.88-14.33.88,0,0-30.73-9.73-48.79,9.92,0,0-18.11,13.22-18.55,40.86-.44,27.63-2.79,43.97-5.27,46.61-2.48,2.63-15.05,26.24-15.22,29.84-.17,3.6-3.78,18.41,10.82,28.16,0,0,13.28,4.51,21.36.8,0,0,9.72,2.24,16.5-.55,0,0,12.61,3.1,21.24.8"/><path class="cls-23" d="m287.66,104.1s13.37,1.55,13.64,12.72c.27,11.17-12.26,12.75-14.49,12.94,0,0-3.28,36.72-38.22,37.48,0,0-27.16,2.21-38.28-8.17,0,0-13.4-10.05-16.92-30.63,0,0-13.2.03-14.92-12.72,0,0-.05-12,14.6-12.61l.02-8.52s-4.58-56.9,48.18-53.71c52.76,3.19,42.64,43.25,46.39,63.23Z"/><path class="cls-23" d="m259.48,163.92s-5.44,23.68,6.73,29.19c0,0-28.86,23.27-56.11-1.98,0,0,15-10.67,6.73-28.13l42.65.91Z"/><path class="cls-26" d="m251.09,46.43s5.05,34.7-11.69,43.24c0,0-13.49,4.99-23.81-.38,0,0-11.55,9.02-22.74,8.04l-8.64,1.86s6.08-67.95,54.83-62.57c48.75,5.38,43.15,29.9,53.88,60.09,0,0-2.88,5.16-14.32-5.63,0,0-18.89,4.7-39.2-1.42"/><path class="cls-5" d="m231.63,97.01s-12.76-6.7-20.45,2.79c-1.88,2.33-2.98,5.18-3.43,8.14-.41,2.71-.53,6.33.85,9.29"/><path class="cls-5" d="m212.64,97.85s-2.55-.65-3.43-4.71"/><ellipse class="cls-21" cx="259.95" cy="109.56" rx="5.95" ry="4.57" transform="translate(146.27 367.74) rotate(-89.09)"/><ellipse class="cls-21" cx="223.18" cy="108.98" rx="5.95" ry="4.57" transform="translate(110.67 330.4) rotate(-89.09)"/><path class="cls-5" d="m250.87,97.32s12.97-6.29,20.35,3.44c1.81,2.39,2.82,5.27,3.17,8.24.32,2.72.33,6.34-1.15,9.26"/><path class="cls-5" d="m269.82,98.76s2.57-.57,3.58-4.6"/><line class="cls-5" x1="244.98" y1="121.55" x2="244.48" y2="123.04"/><ellipse class="cls-12" cx="240.01" cy="143.47" rx="9.09" ry="13.1" transform="translate(92.75 381.17) rotate(-89.09)"/><path class="cls-5" d="m227.38,68.54s-7.37-2.34-13.61,2.5"/><path class="cls-5" d="m251.31,69.42s7.44-2.1,13.53,2.93"/><path class="cls-5" d="m287.32,129.34c7.81.12,14.23-5.38,14.34-12.29s-6.13-12.61-13.94-12.73"/><path class="cls-5" d="m192.37,128.35c-7.81-.12-14.05-5.83-13.94-12.73s6.53-12.41,14.34-12.29"/><path class="cls-5" d="m287.59,121.78s.42,44.89-38.6,45.6"/><path class="cls-5" d="m229.83,167.07c-37.73-5.43-37.13-46.8-37.13-46.8"/><path class="cls-5" d="m250.67,46.89s6.93,28.84-11.24,43.44"/><path class="cls-5" d="m230.05,46.92s4.59,29.3-14.68,42.4"/><path class="cls-5" d="m272.13,55.41s-3.68,41.29,20,42.42"/><path class="cls-5" d="m206.76,69.61s.6,25.98-20.12,28.93"/><path class="cls-5" d="m227.03,22.72s-48.33-6.66-54.74,52.2"/><path class="cls-5" d="m253.84,23.7s36.44-6.88,48.35,45.99"/><path class="cls-5" d="m304.38,83.68s-1.23,31.74,9.61,46.1,21.78,37.63,5.91,52.3"/><path class="cls-5" d="m309.65,152.12s5.89,21.71-10.79,29.43"/><path class="cls-5" d="m286.33,161.1s.49,17.92-14.75,21.19"/><path class="cls-5" d="m178.01,151.39s-8.12,20.71,6.16,29.31"/><path class="cls-5" d="m218.39,164.94s6.19,16.82-7.52,25.96c0,0,21.88,25.3,55.84,2.02,0,0-12.85-4.46-7.01-26.48"/><path class="cls-5" d="m172.28,87.62s-.61,28.63-8.96,41.13c-7.62,11.4-22.44,34.83-1.09,51.23"/><path class="cls-5" d="m195.24,163.58s-2.65,13.65,5.53,16.22"/><path class="cls-24" d="m228.06,146.69s6.09-3.4,12.41-1.38c0,0,6.08-2.85,12.61.99,0,0-6.26,7.2-12.44,6.5-6.18-.71-10.25-1.91-12.57-6.11Z"/><ellipse class="cls-4" cx="240.01" cy="143.47" rx="9.09" ry="13.1" transform="translate(92.75 381.17) rotate(-89.09)"/></g></g><ellipse class="cls-27" cx="238.84" cy="96.84" rx="74.28" ry="73.94" transform="translate(127.87 329.45) rotate(-86.56)"/><ellipse class="cls-8" cx="238.84" cy="96.84" rx="74.28" ry="73.94" transform="translate(127.87 329.45) rotate(-86.56)"/><path class="cls-20" d="m256.49,390.12l-39.04-2.27-14.76-44.73s34.84,7.15,65.14,2.87l-11.33,44.13Z"/><path class="cls-3" d="m217.25,388.26s8.33,1.62,39.58,1.59"/><path class="cls-6" d="m272.46,41.94s13.27,5.05,21.69,24.96"/><circle class="cls-20" cx="296.8" cy="75.43" r="2.12"/></g><path class="cls-6" d="m192.19,142.87s-16.04-16.21-18.99-40.67"/></g></g></svg>