<?xml version="1.0" encoding="UTF-8"?><svg id="_レイヤー_2" xmlns="http://www.w3.org/2000/svg" viewBox="0 0 232.61 302.65"><defs><style>.cls-1{fill:#686868;}.cls-2,.cls-3,.cls-4,.cls-5{fill:#0a0000;}.cls-6{fill:#c8dbe1;stroke-width:4px;}.cls-6,.cls-3,.cls-7,.cls-4,.cls-8,.cls-9,.cls-5{stroke:#0a0000;}.cls-6,.cls-7,.cls-8,.cls-9,.cls-5,.cls-10,.cls-11{stroke-miterlimit:10;}.cls-3{stroke-width:2.37px;}.cls-3,.cls-12,.cls-4{stroke-linecap:round;stroke-linejoin:round;}.cls-12{stroke:#fff;stroke-width:2px;}.cls-12,.cls-10,.cls-11{fill:none;}.cls-7{stroke-width:2.21px;}.cls-7,.cls-9{fill:#fff;}.cls-4{stroke-width:2.12px;}.cls-8{fill:#747574;stroke-width:1.72px;}.cls-9{stroke-width:3px;}.cls-5{stroke-width:6px;}.cls-10{stroke-width:2.44px;}.cls-10,.cls-11{stroke:#686868;}.cls-11{stroke-width:1.96px;}</style></defs><g id="_レイヤー_1-2"><g><path class="cls-9" d="m154.54,301.15l-133.29-1.87c-13.12-.18-21.82-11.05-19.32-24.14L49.67,24.97c2.5-13.09,15.28-23.65,28.4-23.47l133.29,1.87c13.12.18,21.82,11.05,19.32,24.14l-47.75,250.17c-2.5,13.09-15.28,23.65-28.4,23.47Z"/><path class="cls-6" d="m153.82,284.51l-126.89-2.81c-6.47-.14-11.29-6.03-10.15-12.4l2.15-12.02L60.07,26.68c.91-5.12,5.42-8.81,10.62-8.69l131.24,2.91c6.55.14,11.38,6.15,10.12,12.58l-47.63,242.53c-.99,5.03-5.46,8.63-10.58,8.51Z"/><rect class="cls-8" x="212.06" y="66.75" width="7.2" height="37.96" rx="3.6" ry="3.6" transform="translate(20.32 -39.57) rotate(11)"/><rect class="cls-7" x="194.12" y="149.98" width="7.2" height="62.92" rx="3.6" ry="3.6" transform="translate(38.25 -34.39) rotate(11)"/><path class="cls-5" d="m21.77,256.4l143.88,2.02-2.32,15.58c-.6,4.03-3.17,7.5-6.86,9.25h0c-1.74.83-3.65,1.23-5.58,1.17l-123.24-3.4c-2.88-.08-5.58-1.39-7.42-3.61h0c-2.12-2.56-2.84-6-1.91-9.19l3.45-11.82Z"/><polygon class="cls-3" points="187.87 31.52 186.84 37.38 177.01 37.24 187.87 31.52"/><polygon class="cls-4" points="195.54 37.88 193.45 37.85 194.71 31.24 196.81 31.27 195.54 37.88"/><path class="cls-2" d="m168.84,38.59l-5.54-6.98s5.8-4.4,11.48.48l-5.94,6.5"/><polygon class="cls-2" points="156.25 39 106.41 37.8 110.07 19.57 159.91 20.77 156.25 39"/><circle class="cls-10" cx="146.46" cy="29.12" r="4.44"/><circle class="cls-11" cx="119.37" cy="28.22" r="3.57"/><rect class="cls-1" x="126.58" y="28.91" width="10.3" height="2.88" rx="1.44" ry="1.44" transform="translate(.44 -1.85) rotate(.81)"/><polygon class="cls-12" points="53.47 262.19 52.59 268.79 51.7 275.4 47.61 271.49 43.52 267.58 48.5 264.88 53.47 262.19"/><polygon class="cls-12" points="132.3 276.79 120.23 276.62 122.53 264.58 134.59 264.75 132.3 276.79"/><polyline class="cls-12" points="80.58 266.66 78.79 276.04 92.53 276.23 94.85 266.59 91.84 263.71 88.82 260.83 84.73 263.61 80.63 266.39"/></g></g></svg>