<?xml version="1.0" encoding="UTF-8"?><svg id="_レイヤー_2" xmlns="http://www.w3.org/2000/svg" viewBox="0 0 191.94 141.91"><defs><style>.cls-1{fill:#fff;}.cls-2{fill:#af3042;}.cls-2,.cls-3,.cls-4,.cls-5,.cls-6,.cls-7,.cls-8{stroke:#090000;}.cls-2,.cls-3,.cls-4,.cls-5,.cls-7{stroke-width:5.27px;}.cls-2,.cls-3,.cls-6,.cls-7{stroke-linecap:round;stroke-linejoin:round;}.cls-3,.cls-5,.cls-8{fill:#a9a9a8;}.cls-4{fill:#454546;}.cls-4,.cls-5,.cls-8{stroke-miterlimit:10;}.cls-6{fill:#090000;stroke-width:5.46px;}.cls-7{fill:none;}.cls-8{stroke-width:4.35px;}</style></defs><g id="_レイヤー_1-2"><g><polygon class="cls-3" points="133.05 29.01 76.74 29.4 81.23 2.96 128.2 2.64 133.05 29.01"/><rect class="cls-5" x="13.4" y="9.84" width="27.86" height="22.53" rx="5.36" ry="5.36" transform="translate(-.14 .19) rotate(-.39)"/><rect class="cls-5" x="50.22" y="9.62" width="18.64" height="22.53" rx="4.39" ry="4.39" transform="translate(-.14 .41) rotate(-.39)"/><rect class="cls-5" x="145.31" y="8.94" width="27.86" height="22.53" rx="5.36" ry="5.36" transform="translate(-.13 1.09) rotate(-.39)"/><path class="cls-4" d="m6.67,24.74h179.54c1.52,0,2.75,1.23,2.75,2.75v105.22c0,3.3-2.68,5.97-5.97,5.97H8.98c-3.3,0-5.97-2.68-5.97-5.97V28.41c0-2.02,1.64-3.66,3.66-3.66Z" transform="translate(-.56 .66) rotate(-.39)"/><path class="cls-5" d="m5.8,24.74h179.79c1.7,0,3.08,1.38,3.08,3.08v27.17H2.72v-27.17c0-1.7,1.38-3.08,3.08-3.08Z" transform="translate(-.27 .65) rotate(-.39)"/><path class="cls-8" d="m3.35,125.58h185.95v6.86c0,3.45-2.8,6.24-6.24,6.24H9.59c-3.45,0-6.24-2.8-6.24-6.24v-6.86h0Z" transform="translate(-.9 .66) rotate(-.39)"/><g><path class="cls-1" d="m96.15,65.52s.25,25.49-19.85,25.96c-20.6.48-24.27-14.38-22.41-27.35"/><path class="cls-1" d="m94.29,68.18c-.41,13.89,7.64,28.91,29.1,25.53,21.11-3.33,19.25-28.72,19.25-28.72"/><path class="cls-2" d="m53.01,63.07c.7-13.83,11.95-24.51,25.12-23.84,13.17.67,23.28,12.42,22.58,26.26"/><path class="cls-2" d="m95.7,65.07c-.95-13.82,8.95-25.76,22.11-26.66,13.16-.9,24.59,9.57,25.54,23.39"/><path class="cls-7" d="m53.89,64.13s37.21,7.69,88.56-1.27"/><path class="cls-7" d="m70.29,91.89s23.04,2.92,24-23.71"/><path class="cls-7" d="m119.6,92.84s22.25.57,21.85-26.01"/><path class="cls-6" d="m74.46,67.58s-4.74,14.92,6.09,20.5c0,0,11.63-8.3,9.92-18.81l-16.01-1.68Z"/><path class="cls-6" d="m123.81,66.83s-4.74,14.92,6.09,20.5c0,0,11.63-8.3,9.92-18.81l-16.01-1.68Z"/></g></g></g></svg>