<?xml version="1.0" encoding="UTF-8"?><svg id="_レイヤー_2" xmlns="http://www.w3.org/2000/svg" viewBox="0 0 168.02 165.03"><defs><style>.cls-1,.cls-2,.cls-3,.cls-4,.cls-5,.cls-6,.cls-7,.cls-8{stroke:#090000;stroke-linejoin:round;}.cls-1,.cls-2,.cls-3,.cls-6,.cls-7{fill:none;}.cls-1,.cls-3,.cls-4,.cls-6,.cls-7,.cls-8{stroke-linecap:round;}.cls-1,.cls-8{stroke-width:3.75px;}.cls-9{fill:#fff;}.cls-10{fill:#cbcbcb;}.cls-2{stroke-width:3.69px;}.cls-3{stroke-width:4.01px;}.cls-4{fill:#090000;}.cls-4,.cls-7{stroke-width:3.94px;}.cls-5{fill:#4d4d4d;}.cls-5,.cls-6{stroke-width:3.36px;}.cls-8{fill:#af3042;}</style></defs><g id="_レイヤー_1-2"><g><g><path class="cls-5" d="m7.03,1.68l159.31,7.77-5.34,109.57-33.56-1.64c2.22,13.47-1.01,29.93-1.41,31.93-1.18,5.89-2.96,11.97-6.91,12.88-25.34,5.83-42.29-11.97-35.06-20.38,6.79-7.9,18.33-1,18.33-1-2.68-4.74-6.3-18.85-7.81-25.03l-16.89-.82c-1.14,14.71-9.31,33.81-12.69,39.51-3.15,5.31-11.12,4.04-17.28,3.65-25.37-1.59-28.52-20.9-18.13-24.5,11.65-4.04,19.86,4.33,19.86,4.33-1.23-4.93,1.06-17.56,2.45-24.25l-50.21-2.45L7.03,1.68Z"/><line class="cls-6" x1="107.44" y1="144.39" x2="101.33" y2="140.11"/><line class="cls-6" x1="52.96" y1="142.35" x2="48.78" y2="137.2"/></g><rect class="cls-10" x="16.52" y="16.96" width="134.94" height="87.62" transform="translate(164.92 125.56) rotate(-177.21)"/><path class="cls-9" d="m21.26,15.44s99.47,23.71,127.41,71.87l2.85-66.02L21.26,15.44Z"/><g><path class="cls-9" d="m86,46.58s-1.12,19.47,13.37,20.52c14.85,1.09,18.04-10.14,17.18-20.11"/><path class="cls-9" d="m87.26,48.51c-.19,10.04-6.52,20.6-21.88,17.41-15.12-3.14-12.88-21.39-12.88-21.39"/><path class="cls-8" d="m117.22,46.26c-.02-10.01-7.77-18.1-17.29-18.08-9.53.02-17.23,8.15-17.2,18.16"/><path class="cls-8" d="m86.35,46.21c1.17-9.94-5.56-18.89-15.02-20-9.46-1.11-18.07,6.05-19.24,15.99"/><path class="cls-3" d="m121.61,45.94s-36.65,4.68-73.39-3.58"/><path class="cls-1" d="m103.75,66.45s-16.72,1.31-16.49-17.94"/><path class="cls-7" d="m68.14,65.41s-16.07-.36-14.86-19.52"/><path class="cls-4" d="m101.58,48.76s2.9,10.93-5.11,14.58c0,0-8.1-6.39-6.5-13.92l11.61-.66Z"/><path class="cls-4" d="m66.01,46.5s2.9,10.93-5.11,14.58c0,0-8.1-6.39-6.5-13.92l11.61-.66Z"/><path class="cls-1" d="m49.07,58.97s-11.5-3.13-13.82,7.73"/><path class="cls-1" d="m117.54,62.81s10.73-3.6,14.07,7.26"/><path class="cls-1" d="m126.13,63.45s-5.67,21.28-40.44,19.59c-34.77-1.7-44.89-21.54-44.89-21.54"/></g><rect class="cls-2" x="16.52" y="16.96" width="134.94" height="87.62" transform="translate(164.92 125.56) rotate(-177.21)"/></g></g></svg>