<?xml version="1.0" encoding="UTF-8"?><svg id="_レイヤー_2" xmlns="http://www.w3.org/2000/svg" viewBox="0 0 181.76 228.39"><defs><style>.cls-1{fill:#a51f25;}.cls-1,.cls-2{stroke:#090000;stroke-miterlimit:10;stroke-width:5.07px;}.cls-2{fill:#4a79af;}.cls-3{fill:#ececec;}.cls-4{fill:#090000;}</style></defs><g id="_レイヤー_1-2"><g><rect class="cls-4" x="5.58" y="63.23" width="170.1" height="101.02" transform="translate(141.88 -22.37) rotate(59.18)"/><path class="cls-1" d="m125.75,151.48h0c17.64,0,31.95,14.32,31.95,31.95v31.98c0,17.64-14.32,31.95-31.95,31.95h0v-95.88h0Z" transform="translate(240.38 -24.46) rotate(59.18)"/><rect class="cls-3" x="18.05" y="73.7" width="145.14" height="80.11" transform="translate(141.88 -22.35) rotate(59.18)"/><path class="cls-2" d="m24.06-18.98h0c17.64,0,31.95,14.32,31.95,31.95v31.98c0,17.64-14.32,31.95-31.95,31.95h0V-18.98h0Z" transform="translate(35.68 78.18) rotate(-120.82)"/><circle class="cls-4" cx="162.61" cy="187.2" r="2.75"/><circle class="cls-4" cx="152.21" cy="184.61" r="2.75"/><circle class="cls-4" cx="149.62" cy="195.02" r="2.75"/><circle class="cls-4" cx="160.02" cy="197.6" r="2.75"/><circle class="cls-4" cx="126.7" cy="208.54" r="8.59"/><circle class="cls-4" cx="58" cy="18.81" r="8.59"/><rect class="cls-4" x="26.02" y="25.53" width="6.28" height="21.98" rx="2.55" ry="2.55" transform="translate(45.58 -7.23) rotate(59.18)"/><rect class="cls-4" x="26.02" y="25.53" width="6.28" height="21.98" rx="2.55" ry="2.55" transform="translate(-14.59 20.1) rotate(-30.82)"/></g></g></svg>