<?xml version="1.0" encoding="UTF-8"?><svg id="_レイヤー_2" xmlns="http://www.w3.org/2000/svg" viewBox="0 0 662.16 200.8"><defs><style>.cls-1,.cls-2{fill:#fff;}.cls-3{fill:#251e1c;}.cls-4{fill:#212947;}.cls-5{fill:#090000;}.cls-2{stroke:#090000;stroke-linecap:round;stroke-miterlimit:10;stroke-width:1.75px;}</style></defs><g id="_レイヤー_1-2"><g><g><g><path class="cls-1" d="m569.34,148.18s45.04-73.53,81.24-31.9c36.8,42.32-61.06,93.19-89.31,69.27-28.26-23.92-27.25-30.9-23.72-51.83,3.53-20.93,14.13-46.35-7.57-66.78-21.02-19.79-12.8-52.03,9.34-60.55,1.35-.52.27-.12,1.65-.56,8.65-2.75,45.8-11.04,54.61,34.2,10.09,51.83-10.34,73.88-8.32,86.34"/><path class="cls-5" d="m569.34,148.18c3.26-3.11,6.06-5.58,8.82-8.3,2.77-2.71,5.51-5.66,8.94-9.46.93-1.03,2.34-2.55,4.14-4.38.9-.92,1.91-1.9,3-2.93.53-.49,1.07-.99,1.61-1.49.7-.62,1.41-1.25,2.13-1.86,1.45-1.23,2.95-2.44,4.51-3.58,3.12-2.3,6.49-4.4,10.09-6.04,3.59-1.66,7.45-2.81,11.37-3.11,3.92-.3,7.89.32,11.61,1.93,3.72,1.6,7.17,4.15,10.24,7.25.79.75,1.5,1.61,2.25,2.41.67.85,1.41,1.66,2.01,2.56,1.28,1.74,2.36,3.6,3.2,5.54,1.73,3.87,2.38,8.11,1.86,12.33-.48,4.23-2.09,8.4-4.39,12.25-4.63,7.74-11.66,14.22-19.23,19.52-7.62,5.31-15.95,9.5-24.4,12.52-8.44,3.01-17.1,4.87-25.27,4.91-4.07.02-8-.49-11.5-1.62-1.74-.58-3.36-1.32-4.81-2.23-.74-.44-1.39-.96-2.05-1.48-.74-.64-1.48-1.28-2.22-1.92-5.87-5.07-11.19-10.04-15.22-15.01-.26-.31-.51-.61-.76-.92-.22-.32-.45-.63-.67-.94-.44-.62-.88-1.24-1.31-1.85-.7-1.27-1.53-2.47-2.01-3.71-.63-1.21-.94-2.46-1.35-3.65-.22-1.24-.54-2.41-.59-3.62-.44-4.78.39-9.37.95-13.14.62-3.83,1.13-6.7,1.55-8.7.42-2,.64-3.06.64-3.06,0,0,.23-1.07.66-3.08.43-2.02,1.1-5,1.82-8.9.71-3.9,1.51-8.73,1.69-14.48.17-5.72-.4-12.52-3.15-19.41-1.37-3.43-3.25-6.85-5.68-10-1.22-1.57-2.53-3.1-3.96-4.55-.69-.69-1.39-1.38-2.09-2.08-.63-.63-1.27-1.25-1.85-1.95-4.78-5.35-8.17-12.55-8.61-20.46-.5-7.85,1.86-16.34,7.11-22.89,1.29-1.64,2.79-3.13,4.4-4.47,1.61-1.35,3.38-2.51,5.28-3.43.46-.26.95-.47,1.44-.67.5-.21.93-.41,1.53-.63l.08-.03.55-.16.83-.26c.52-.16,1.06-.31,1.6-.45,2.16-.56,4.38-.99,6.62-1.26,8.93-1.15,18.3.2,25.49,5.17,1.78,1.24,3.48,2.63,4.95,4.25.78.77,1.44,1.65,2.14,2.5.67.87,1.28,1.8,1.9,2.72,2.36,3.77,4.1,7.97,5.39,12.32.29,1.1.65,2.17.88,3.29.25,1.11.49,2.22.73,3.33.4,2.29.85,4.56,1.16,6.84.69,4.55,1.17,9.07,1.38,13.53.23,4.46.23,8.86-.01,13.17-.12,2.15-.3,4.28-.54,6.38-.14,1.05-.24,2.09-.4,3.13-.14.88-.27,1.76-.4,2.63-1.11,6.63-2.64,11.96-3.41,14.62-1.44,4.92-2.53,8.86-3.19,12.81-.33,1.98-.56,3.95-.58,6.04-.02,2.06.17,4.31,1.02,6.41.24-2.25,1.01-4.06,1.8-5.81.81-1.73,1.67-3.38,2.52-5.12,1.71-3.46,3.41-7.26,4.97-12.39.83-2.77,2.46-8.39,3.65-15.43.14-.93.29-1.86.43-2.8.17-1.1.28-2.21.43-3.32.25-2.23.45-4.49.57-6.77.26-4.56.25-9.21.01-13.91-.23-4.7-.73-9.44-1.45-14.19-.33-2.38-.79-4.75-1.21-7.13-.27-1.21-.53-2.42-.8-3.63-.25-1.22-.65-2.42-.97-3.63-1.42-4.82-3.39-9.6-6.17-14.05-2.8-4.41-6.47-8.45-10.92-11.47-4.43-3.03-9.54-5.04-14.72-5.96-5.18-.96-10.42-.98-15.49-.35-2.54.31-5.04.79-7.5,1.43-.62.16-1.23.33-1.85.52l-.88.27-.31.09c-.26.06-.62.2-.77.26-.52.19-1.17.48-1.77.73-.61.25-1.21.52-1.79.83-2.36,1.16-4.57,2.61-6.56,4.27-2,1.66-3.83,3.49-5.41,5.49-6.39,8-9.18,18.13-8.58,27.59.53,9.52,4.65,18.26,10.33,24.58.69.82,1.44,1.56,2.18,2.29.67.67,1.33,1.33,1.99,1.98,1.25,1.26,2.37,2.58,3.4,3.91,2.07,2.68,3.62,5.53,4.77,8.39,2.3,5.74,2.82,11.54,2.67,16.69-.17,5.16-.89,9.7-1.58,13.43-.7,3.74-1.35,6.68-1.78,8.7-.44,2.02-.67,3.09-.67,3.09,0,0-.23,1.08-.65,3.13-.43,2.04-.99,5.15-1.61,8.98-.15.98-.31,2.01-.47,3.1-.15,1.1-.28,2.27-.43,3.48-.1,1.24-.21,2.54-.26,3.91,0,1.39-.05,2.82.14,4.36.07,1.52.45,3.09.78,4.71.5,1.57.96,3.22,1.74,4.76.65,1.62,1.61,3.05,2.49,4.6.5.71,1.01,1.43,1.53,2.16.26.36.52.73.78,1.09.28.34.56.68.85,1.03,4.53,5.57,10.07,10.69,16.08,15.9.75.65,1.51,1.31,2.27,1.97.9.72,1.83,1.44,2.83,2.05,1.98,1.24,4.12,2.2,6.31,2.94,4.41,1.43,9.04,1.98,13.65,1.96,9.25-.05,18.53-2.09,27.56-5.3,9.03-3.22,17.85-7.66,26.03-13.35,4.09-2.84,8.01-6.03,11.62-9.6,3.6-3.58,6.93-7.55,9.59-12.06,2.68-4.47,4.68-9.55,5.31-14.95.32-2.69.29-5.44-.12-8.13-.4-2.69-1.21-5.3-2.27-7.74-1.06-2.45-2.39-4.74-3.92-6.82-.73-1.08-1.58-2.03-2.38-3.03-.85-.93-1.65-1.89-2.57-2.76-3.53-3.57-7.68-6.68-12.4-8.72-4.7-2.04-9.92-2.86-14.85-2.47-4.94.37-9.57,1.8-13.71,3.71-4.16,1.9-7.9,4.25-11.31,6.76-1.71,1.25-3.33,2.56-4.89,3.88-.78.66-1.54,1.33-2.29,2-.58.53-1.15,1.06-1.72,1.59-1.16,1.1-2.23,2.14-3.18,3.11-1.9,1.94-3.37,3.55-4.34,4.64-3.56,4.02-5.93,7.5-7.86,11-1.91,3.5-3.4,7.02-4.82,11.31Z"/></g><g><path class="cls-1" d="m611.41,125.08s27.64-17.06,28.79,17.06"/><path class="cls-5" d="m611.41,125.08c2.17-.63,3.99-.97,5.84-1.37,1.86-.36,3.77-.81,6.17-1.06.41-.05.94-.09,1.71-.11.76,0,1.77.01,3.06.29.18.04.43.1.69.16.26.08.53.18.78.26.26.07.47.18.63.25.16.07.26.12.26.12,0,.02.35.12.73.39.4.24.88.54,1.18.82,1.32,1.09,2.21,2.24,2.76,3.25.31.48.53.94.71,1.34.18.4.35.72.46,1,.92,2.24,1.4,4.16,2.03,5.96.27.91.54,1.81.87,2.75.27.94.57,1.93.91,3.01.21-1.1.39-2.13.53-3.14.09-1.01.16-1.99.17-3.01-.09-2.02-.29-4.2-1.33-6.85-.12-.33-.32-.72-.53-1.19-.21-.48-.47-1.02-.86-1.63-.68-1.23-1.8-2.73-3.57-4.19-.4-.37-1.05-.78-1.59-1.09-.26-.17-.51-.3-.7-.38-.18-.08-.29-.14-.29-.14,0,0-.13-.06-.34-.16-.21-.1-.5-.25-.84-.35-.33-.11-.7-.24-1.03-.35-.34-.09-.66-.15-.9-.2-1.66-.35-2.9-.37-3.83-.36-.93.02-1.56.08-2.04.14-2.82.33-4.87,1.17-6.67,2.11-1.79.98-3.35,2.14-4.97,3.72Z"/></g><g><path class="cls-1" d="m556.91,15.47s-27.84,3.81-23.56,29.61"/><path class="cls-5" d="m556.91,15.47c-2.26-.18-4.2-.07-6.2.3-1.99.38-4.06,1.06-6.48,2.41-.8.49-2.19,1.16-4.65,3.23-.57.43-1.76,1.65-1.76,1.65,0,0-.25.25-.56.59-.3.34-.69.74-.92,1.06-1.38,1.68-2.23,3.24-2.84,4.48-.61,1.25-.91,2.23-1.15,2.89-.85,2.71-.9,4.97-.69,7.01.19,2.05.84,3.91,1.67,6,.24-2.26.46-4.07.83-5.92.36-1.84.69-3.74,1.44-6.04.21-.56.47-1.39.99-2.45.52-1.05,1.24-2.37,2.41-3.8.2-.28.53-.62.79-.91.25-.3.47-.52.47-.52,0,0,1.05-1.03,1.54-1.42,2.14-1.81,3.4-2.43,4.11-2.87,2.16-1.23,3.92-2.12,5.61-3.01,1.69-.88,3.31-1.77,5.38-2.67Z"/></g></g><g><path class="cls-1" d="m401.52,86.42s-30.26,43.91-59.78,16.97c-29.52-26.94,17.22-66.19,38.86-73.8,28.44-10,66.13-10.7,97.14,19.19,31.01,29.89-3.36,63.1-39.23,56.83,0,0,28.77,75.65-19.8,77.12-48.57,1.48-17.19-92.25-17.19-96.31Z"/><path class="cls-5" d="m401.52,86.42c-3.44,2.91-6.46,5.05-9.49,7.38-1.5,1.14-3.05,2.32-4.72,3.6-1.65,1.27-3.43,2.61-5.45,4.03-.55.39-1.23.87-2.06,1.38-.81.55-1.78,1.09-2.85,1.7-1.08.56-2.27,1.2-3.58,1.73l-.64.28c-.37.17-.76.29-1.14.43-.77.27-1.54.56-2.33.74l-1.19.32c-.4.1-.8.15-1.2.23l-1.21.23-1.23.11c-3.28.3-6.65-.07-9.91-1.22-3.26-1.14-6.39-3.05-9.26-5.49-2.87-2.43-5.43-5.25-7.13-8.51-1.72-3.25-2.54-6.9-2.4-10.68.13-3.78,1.2-7.66,2.92-11.36,3.45-7.44,9.04-14.21,15.31-20.17,6.31-5.94,13.43-11.19,20.92-15.21.93-.52,1.88-.94,2.82-1.42.95-.4,1.89-.88,2.84-1.21.48-.18.93-.37,1.44-.54l1.52-.49c1.02-.33,2.03-.66,3.04-.99,2.04-.59,4.09-1.12,6.12-1.66,2.06-.42,4.09-.91,6.14-1.26,8.18-1.44,16.3-1.84,24.01-1.23,1.92.22,3.83.33,5.7.63,1.86.33,3.7.65,5.51.98,1.79.45,3.55.9,5.29,1.34,1.73.48,3.38,1.12,5.04,1.65,1.67.5,3.22,1.25,4.78,1.9,1.55.67,3.1,1.28,4.51,2.1,1.44.76,2.86,1.51,4.25,2.24,1.33.84,2.63,1.67,3.9,2.48.64.4,1.26.8,1.89,1.2.61.41,1.17.88,1.75,1.31,1.15.87,2.27,1.72,3.36,2.55,1.12.78,2.06,1.75,3.04,2.59.97.86,1.91,1.7,2.82,2.51,3.52,3.26,6.01,6.45,7.71,9.24,1.76,2.77,2.5,5.16,3.07,6.74.4,1.63.6,2.49.6,2.49,0,0,.04.28.11.89.08.6.25,1.53.23,2.83.03,2.56-.22,6.79-3.22,12.07-1.51,2.61-3.75,5.41-6.9,8.06-.4.33-.8.66-1.21,1-.43.31-.87.63-1.32.95-.87.68-1.88,1.22-2.86,1.86-2.05,1.15-4.27,2.31-6.78,3.2-1.22.51-2.55.85-3.88,1.29-1.37.32-2.75.72-4.22.94-1.45.31-2.97.43-4.51.62-1.56.07-3.15.21-4.78.14-.41,0-.82,0-1.23-.01-.41-.02-.83-.06-1.25-.09l-1.08-.08c-.45-.04-.89-.05-1.36-.13-.93-.13-1.86-.26-2.8-.4-1.86-.26-3.74-.53-5.64-.8-.09-.04-.04.04-.02.1l.06.17.13.34.26.69.52,1.39c.35.93.7,1.86,1.05,2.8.35.93.66,1.85.98,2.78.26.79.52,1.59.78,2.39.28.92.57,1.85.86,2.79.56,1.89,1.1,3.83,1.61,5.82,1.26,4.99,2.73,11.54,3.53,19.26.38,3.85.59,8,.34,12.3-.25,4.28-.96,8.75-2.61,12.9-1.62,4.15-4.31,7.86-8.13,10.3-3.81,2.46-8.66,3.66-13.79,3.82-2.53.09-5.03-.08-7.39-.64-2.37-.55-4.54-1.55-6.45-2.93-3.84-2.76-6.4-7.29-7.88-12.31-1.51-5.03-2.06-10.5-2.17-15.92-.1-5.44.27-10.89.86-16.21.15-1.33.31-2.66.49-3.97.06-.44.12-.88.18-1.31.08-.57.17-1.14.25-1.69.18-1.11.35-2.19.51-3.22.68-4.12,1.36-7.5,1.76-9.47,1.03-5.07,1.68-9.1,2.05-12.99.19-1.95.32-3.86.4-5.85.04-1,.07-2.01.09-3.07,0-1.05.06-2.15-.08-3.28-.4,1.04-.95,1.97-1.42,2.9-.48.93-.94,1.83-1.4,2.72-.89,1.79-1.71,3.54-2.46,5.37-1.5,3.66-2.77,7.63-3.88,12.82-.43,2.01-1.13,5.48-1.85,9.72-.17,1.06-.35,2.17-.53,3.32-.09.57-.17,1.16-.26,1.75-.06.45-.12.9-.19,1.36-.19,1.36-.36,2.74-.51,4.13-.62,5.55-1.01,11.26-.9,17.11.12,5.84.69,11.83,2.46,17.77.9,2.95,2.08,5.9,3.79,8.65,1.72,2.73,3.9,5.3,6.62,7.24,2.69,1.95,5.77,3.33,8.89,4.06,3.12.74,6.25.94,9.26.83,5.93-.19,12.08-1.58,17.25-4.91,2.58-1.63,4.81-3.76,6.61-6.09,1.82-2.33,3.16-4.89,4.18-7.44,2.03-5.14,2.79-10.27,3.08-15.04.27-4.78.04-9.26-.37-13.38-.85-8.24-2.4-15.07-3.72-20.28-.53-2.08-1.09-4.1-1.68-6.07-.3-.98-.6-1.95-.89-2.91l-.11-.36c-.03-.1,0-.03-.02-.05h0s0,0,0,0c0,0,0,0,0,0h0s0,0,0,0l.27.02c.48.03.95.08,1.42.1.47,0,.94.01,1.41.02,1.87.07,3.69-.07,5.46-.17,1.77-.21,3.49-.37,5.15-.71,1.67-.26,3.26-.71,4.83-1.08,1.53-.49,3.05-.89,4.46-1.47,2.87-1.03,5.45-2.37,7.84-3.71,1.16-.74,2.32-1.39,3.35-2.18.53-.38,1.04-.75,1.55-1.12.49-.4.96-.8,1.43-1.19,3.74-3.16,6.5-6.57,8.39-9.85,1.9-3.29,2.93-6.41,3.52-9.06.25-1.34.48-2.54.53-3.65.04-.55.08-1.07.12-1.55,0-.49-.02-.94-.02-1.37,0-1.71-.2-2.91-.31-3.69-.11-.78-.16-1.15-.16-1.15,0,0-.27-1.1-.77-3.18-.68-2-1.68-5.02-3.77-8.33-2.03-3.33-4.99-7.08-8.86-10.67-.97-.87-1.98-1.76-3.01-2.69-1.06-.9-2.06-1.93-3.26-2.78-1.17-.89-2.38-1.8-3.61-2.74-.62-.46-1.23-.96-1.89-1.4-.67-.43-1.35-.86-2.03-1.3-1.37-.87-2.78-1.76-4.21-2.67-1.5-.79-3.03-1.61-4.59-2.43-1.54-.88-3.21-1.55-4.89-2.27-1.69-.71-3.37-1.51-5.18-2.06-1.8-.58-3.59-1.27-5.47-1.79-1.88-.48-3.8-.96-5.73-1.45-1.96-.38-3.95-.7-5.96-1.06-2.02-.32-4.08-.45-6.15-.68-8.31-.66-17.02-.22-25.74,1.31-2.18.38-4.35.9-6.54,1.34-2.16.57-4.34,1.13-6.51,1.76-1.07.35-2.15.7-3.23,1.04l-1.62.52c-.54.18-1.11.42-1.66.62-1.13.41-2.17.93-3.26,1.39-1.04.52-2.11,1.01-3.13,1.57-8.18,4.4-15.65,9.93-22.42,16.29-3.37,3.19-6.55,6.61-9.42,10.31-2.86,3.7-5.43,7.67-7.42,12-2,4.3-3.36,9.05-3.54,13.96-.21,4.9.92,9.9,3.18,14.14,2.24,4.27,5.42,7.72,8.8,10.58,3.38,2.86,7.22,5.25,11.41,6.71,4.17,1.48,8.63,1.97,12.8,1.58.52-.05,1.04-.1,1.56-.15.51-.09,1.02-.18,1.52-.28.5-.1,1.01-.17,1.51-.3.49-.13.98-.26,1.46-.39.98-.24,1.91-.58,2.83-.91.46-.17.93-.31,1.37-.52l.76-.33c1.56-.64,2.94-1.38,4.19-2.04,1.23-.7,2.33-1.34,3.25-1.95.94-.59,1.7-1.13,2.31-1.57,2.25-1.61,4.1-3.23,5.69-4.85,1.6-1.6,2.92-3.22,4.12-4.85,2.36-3.28,4.21-6.67,5.9-10.87Z"/></g><g><g><path class="cls-1" d="m339.11,80.13s-23.12-4.57-22.86-24.3c.25-19.18,14.73-30.12,25.21-29.21.55.05-2.09-.03-1.54-.07,4.41-.35,29.91-.89,30.54,22.31.7,25.75-23.51,32.2-31.34,31.27Z"/><path class="cls-5" d="m337.71,76c.15.05.21.07.36.29.55.7,1.19,1.8,1.21,3,.08,1.2-.57,2.61-3.01,3.54-.09.04-.5.13-.68.1-4.18-1.3-8.17-3.15-11.82-5.78-2.7-1.94-5.17-4.37-7.11-7.27-.96-1.46-1.75-3.03-2.4-4.66-.61-1.64-1.06-3.34-1.32-5.06-.24-1.7-.36-3.46-.26-5.1.1-1.63.15-3.26.46-4.88.44-3.25,1.44-6.45,2.79-9.47,1.32-3.05,3.22-5.85,5.43-8.36,2.23-2.5,4.84-4.69,7.84-6.35,3-1.64,6.36-2.81,10.02-3.03.46-.01.93,0,1.39,0l.7.02h.35c.08.02.05,0,.25.03.04,0,.25.03.35.06.09.02-.01,0-.01,0h-.14c-.37-.05-.75-.06-1.12-.09-.19-.19-.38-.1-.57-.11l-.57.03c-.19.01-.37.03-.55.06l-.26.05s-.11.03-.09.02l.13-.03c.36-.05.73-.1,1.1-.12l.72-.04.61-.02h1.21c.81,0,1.61.01,2.41.06,3.2.18,6.41.64,9.58,1.53,1.58.45,3.15,1.01,4.7,1.68,1.54.7,3.04,1.53,4.46,2.51,1.43.99,2.75,2.16,3.96,3.44,1.2,1.3,2.22,2.77,3.1,4.3,1.69,3.11,2.62,6.53,2.97,9.86.07.83.11,1.66.16,2.5v2.44c-.04.81-.1,1.63-.15,2.45-.08.82-.2,1.63-.31,2.45-.51,3.26-1.53,6.51-3.05,9.52l-.28.56c-.08.17-.22.43-.24.45l-.25.43-.51.86c-.34.58-.74,1.11-1.11,1.67-.78,1.09-1.63,2.12-2.53,3.1,0,0-.14.14-.41.37-.27.23-.66.58-1.15,1-1.02.81-2.46,1.91-4.25,2.93-1.78,1.02-3.88,1.98-6.05,2.69-2.17.72-4.42,1.19-6.46,1.4-3.45.44-5.74.12-7-.29-1.27-.43-1.5-.88-1.13-1.18.37-.32,1.31-.55,2.63-.93,1.31-.38,2.99-.89,4.78-1.56-.43.02,4.02-1.32,7.77-3.92,1.89-1.26,3.59-2.74,4.73-3.96,1.15-1.21,1.79-2.11,1.79-2.11.66-.76,1.27-1.56,1.83-2.39.3-.4.53-.85.79-1.28l.19-.32.05-.09c.04-.07.07-.14.11-.21l.21-.42.43-.85.37-.88c.97-2.35,1.57-4.87,1.83-7.47l.13-1.97c.02-.66,0-1.33.02-1.99,0-.66-.07-1.29-.1-1.93-.05-.64-.16-1.25-.24-1.88-.43-2.47-1.3-4.74-2.59-6.71-.67-.97-1.44-1.87-2.3-2.68-.89-.8-1.85-1.53-2.91-2.17-4.25-2.55-9.68-3.64-15.04-3.8-.67-.02-1.34-.02-2,0l-.86.03h0s.64-2.9.64-2.9l-.15,1.48c-.05.58-.2,2.33-.14,1.52h-.05s-.21,0-.21,0h-.41s-.82-.03-.82-.03l-.85.11c-2.27.27-4.61,1.15-6.74,2.44-2.12,1.3-4.11,2.93-5.73,4.91-1.62,1.97-3.01,4.16-4.03,6.53-.27.58-.45,1.21-.69,1.81l-.33.91c-.1.31-.16.63-.25.94l-.49,1.89-.3,1.94-.16.97-.06.99-.12,1.97c-.02.65.01,1.25.03,1.88.08.61.09,1.23.22,1.82.16,1.21.54,2.35.95,3.48.45,1.11,1.02,2.17,1.68,3.19,1.36,2.01,3.15,3.79,5.24,5.29,2.85,2.06,6.22,3.65,9.7,4.72Z"/></g><g><path class="cls-1" d="m356.19,104.64s21.73,7.41,22.91-14.32c1.18-21.73-24.95-29.33-36.77-21.95,0,0-30.22,6.8-21.01,77.14,9.21,70.35,56.12,31.58,57.39,1.34,1.35-32.13-4.02-32.78-5.67-44.41"/><path class="cls-5" d="m356.19,104.64c1.94,1.17,3.91,2,5.93,2.59,2.02.57,4.12.87,6.37.71,2.23-.16,4.68-.81,6.97-2.37,1.16-.75,2.19-1.78,3.14-2.94.92-1.18,1.68-2.54,2.27-4.01.61-1.55,1.28-3.91,1.54-6.7.14-1.38.21-2.92.11-4.55l-.04-.62-.03-.49c0-.23-.05-.46-.08-.69-.12-.92-.26-1.86-.5-2.79-.18-.94-.53-1.86-.82-2.79-.38-.91-.72-1.84-1.21-2.71-1.79-3.58-4.62-6.69-7.88-9.07-3.28-2.36-7-4.04-10.84-4.99-3.84-.98-7.81-1.26-11.68-.78-1.93.24-3.85.7-5.68,1.42-.91.36-1.81.77-2.66,1.27-.03.02-.15.09-.11.06l.04-.02h0s.04-.01-.04.01l-.38.12c-.49.17-.94.35-1.37.54-.39.16-.74.35-.65.3-2.94,1.42-5.36,3.32-7.48,5.4-2.11,2.08-3.86,4.37-5.32,6.71-2.93,4.7-4.84,9.57-6.16,14.22-1.33,4.66-2.11,9.12-2.59,13.27-.3,2.07-.4,4.07-.57,5.98-.11,1.91-.19,3.74-.25,5.48-.19,6.96.23,12.45.44,16.23.33,3.76.51,5.8.51,5.8,0,0,.06.49.16,1.43.11.93.27,2.3.47,4.05.44,3.51,1.12,8.6,2.65,14.71.77,3.06,1.75,6.37,3.16,9.84,1.4,3.45,3.23,7.09,5.94,10.52,1.36,1.71,2.96,3.36,4.87,4.77,1.91,1.41,4.14,2.58,6.57,3.28,2.43.68,5.03.88,7.54.62,2.5-.28,4.92-.95,7.17-1.91,4.49-1.94,8.36-4.84,11.67-8.14,3.32-3.31,6.12-7.04,8.41-11,2.28-3.96,4.06-8.16,5.17-12.48.55-2.16.94-4.35,1.11-6.54.03-.54.08-1.12.1-1.62.02-.5.03-1,.05-1.49.03-.94.06-1.87.09-2.79.19-7.02-.08-12.87-.35-15.8-.48-5.4-1.61-9.75-3.37-13.44-1.74-3.72-3.82-6.57-5.52-10.79-.22,2.24-.21,4.38-.03,6.42.18,2.05.49,3.94.76,5.82.56,3.74.96,7.52,1.37,12.56.22,2.72.47,8.24.28,15.07-.07,1.55-.08,3.85-.21,5.5-.14,1.77-.46,3.58-.92,5.4-.93,3.64-2.47,7.29-4.46,10.75-2,3.46-4.46,6.73-7.31,9.56-2.83,2.83-6.09,5.22-9.52,6.7-1.71.74-3.47,1.21-5.18,1.4-1.72.17-3.39.04-4.95-.4-3.13-.9-5.85-3.04-7.96-5.73-2.13-2.68-3.72-5.77-4.96-8.83-1.25-3.06-2.15-6.09-2.86-8.92-1.42-5.67-2.08-10.51-2.51-13.89-.2-1.7-.36-3.03-.46-3.93-.1-.9-.16-1.38-.16-1.38,0,0-.17-1.98-.49-5.61-.2-3.63-.6-8.94-.41-15.56.06-1.65.14-3.38.24-5.19.17-1.8.26-3.69.54-5.62.45-3.88,1.18-8,2.39-12.21,1.2-4.2,2.91-8.49,5.38-12.44,1.23-1.97,2.68-3.85,4.35-5.5,1.66-1.64,3.57-3.1,5.6-4.07-.07.04.19-.1.44-.2.28-.13.57-.24.83-.33l.19-.06c.12-.03.35-.14.52-.2l.55-.23c.09-.03.2-.1.31-.16l.15-.08c.53-.32,1.12-.58,1.73-.83,1.23-.49,2.61-.83,4.06-1,2.9-.36,6.07-.16,9.12.63,3.06.75,5.99,2.1,8.49,3.9,2.47,1.82,4.52,4.08,5.8,6.64.35.62.59,1.3.87,1.94.2.68.46,1.33.59,2.01.18.67.28,1.36.37,2.04.02.17.06.34.06.51l.02.37.03.46c.06.61.03,1.22.03,1.8.01.58-.06,1.16-.1,1.71-.2,2.2-.68,3.84-1.06,4.87-.76,1.94-1.72,3.33-2.89,4.41-1.16,1.09-2.57,1.88-4.13,2.49-1.57.61-3.29,1.03-5.16,1.31-1.87.26-3.9.42-6.15.3Z"/></g><g><path class="cls-1" d="m333.65,110.76s-4.77,38.98,9.47,54.3"/><path class="cls-5" d="m331.01,112.26c.01-.12.02-.17.15-.32.4-.52,1.09-1.13,1.91-1.25.82-.1,1.75.27,2.68,1.63.03.05.15.28.16.39-.24,2.65-.41,5.34-.5,8.01-.25,7.83.03,15.7,1.38,23.32.12.73.26,1.45.42,2.16.15.72.3,1.43.49,2.14,0,0,.27,1.79.83,4.16.54,2.38,1.44,5.31,2.43,7.66.86,1.98,1.58,3.22,1.91,4.01.33.8.31,1.14-.03,1.12-.33-.02-.95-.4-1.77-1.05-.76-.69-1.7-1.65-2.55-2.84.08.31-1.89-2.59-3.31-5.85-.73-1.62-1.34-3.29-1.78-4.56-.4-1.28-.67-2.13-.67-2.13-.3-1.32-.59-2.64-.81-3.96-1.43-8.1-1.71-16.25-1.47-24.35.09-2.77.26-5.53.51-8.31Z"/></g><g><path class="cls-1" d="m333.87,37.82s23.97-8.4,27.41,12.98"/><path class="cls-5" d="m335.05,38.75c-.06.02-.07.02-.16-.01-.3-.09-.69-.29-.91-.64-.23-.34-.28-.86.22-1.56.02-.03.11-.13.17-.15,1.37-.39,2.74-.7,4.13-.94,3.24-.53,6.58-.69,9.91-.1,3.3.57,6.61,2.02,9.07,4.49l.84.91c.28.31.5.65.75.98,0,0,.15.21.35.58.19.38.48.9.74,1.52.51,1.25,1,2.86,1.14,4.22.3,2.28.08,2.98-.17,2.79-.14-.1-.32-.41-.51-.86-.19-.45-.39-1.03-.66-1.65,0,.07-.13-.27-.33-.82-.25-.53-.54-1.28-.94-1.97-.73-1.43-1.8-2.61-1.8-2.61-.34-.5-.77-.91-1.16-1.36-2.05-2.05-4.82-3.3-7.76-3.8-2.95-.52-6.04-.39-9.07.11-1.3.22-2.59.51-3.84.87Z"/></g></g><g><g><path class="cls-1" d="m321.98,103.96s-.06,34.19-4.19,39.81l-36.28,15.03,5.51-44.82,4.14-17.02,30.82,7Z"/><path class="cls-5" d="m315.81,108.14c0-.29.01-.4.31-.78.89-1.31,2.44-2.92,4.43-3.41,1.98-.5,4.42.13,7,3.43.09.12.43.69.48.98-.14,6.86-.4,13.7-1.01,20.66-.3,3.26-.65,6.52-1.3,9.98-.17.87-.36,1.76-.6,2.69-.05.22-.12.46-.19.71-.09.3-.22.78-.34,1.13-.27.74-.59,1.44-.88,2.16-.36.68-.77,1.31-1.18,1.97l-.3.49c-.09.18-.31.21-.46.32l-.99.56c-.63.4-1.39.66-2.11.97l-1.49.62-17.47,7.23-11.28,4.67-8.71,3.61-4.36,1.8-1.09.45s-.06.03-.06.01v-.07s.03-.15.03-.15l.04-.29.07-.59.29-2.34,3.38-27.4,2.14-17.36.9-7.32,1.1-4.49s.44-1.37,1.17-3.64c.18-.57.39-1.19.61-1.86.24-.74.39-1.1.88-2.83.81-2.76,1.71-5.83,2.67-9.08,2.54.72,5.21,1.47,7.95,2.25,3.12.87,3.96,1.23,5.6,1.77,3,1.04,6,2.11,8.73,3.15,20.99,7.44,11.77,8.11-1.92,6.49.36.16-1.85-.14-5.28-.66-1.71-.26-3.73-.58-5.87-.91l-.4-.06-.2-.03h-.1s-.02-.01-.02-.01l-.18.02-.31.04c-.19.03-.34.07-.45.12.02.43.07.73.14.92v.03s.02,0,.02.03l-.03.16c-.04.21-.08.42-.11.63-.07.41-.15.82-.22,1.21-.14.78-.27,1.52-.39,2.2-.49,2.72-.81,4.49-.81,4.49l-.55,2.25-.81,6.62-2.13,17.36-1.24,10.09,6.18-2.56,17.47-7.24.69-.29s-.02.08,0,0c.04-.13.08-.27.12-.43.15-.59.29-1.25.43-1.92.51-2.74.85-5.75,1.13-8.76.57-6.5.83-13.16.96-19.81Z"/></g><g><path class="cls-1" d="m309.7,78.58s16.3-15.44,4.55-40.93c-8.21-17.81-41.51-39.02-76.73-16.5-38.39,24.55-41.08,63.55-40.94,82.95.34,45.25,31.64,71.52,64.41,61.22,32.43-10.19,31.84-21.64,31.84-21.64"/><path class="cls-5" d="m314.23,78.91c-.12.16-.16.21-.47.31-.98.38-2.39.58-3.48-.02-1.03-.66-1.68-1.95-1.83-4.2,0-.08.01-.44.08-.57,2.19-2.75,3.83-6.05,4.92-9.44,1.03-3.28,1.46-6.73,1.42-10.19-.16-1.73-.19-3.47-.59-5.19l-.24-1.29c-.07-.43-.15-.86-.3-1.28l-.75-2.55c-.21-.86-.57-1.68-.91-2.51l-1-2.49c-.71-1.56-1.52-3.02-2.52-4.46-1.96-2.87-4.43-5.48-7.12-7.83-5.45-4.65-11.92-8.16-18.81-10.18-6.89-2.03-14.19-2.5-21.28-1.37-7.08,1.14-13.96,3.75-20.19,7.55-6.3,3.79-12.18,8.44-17.3,13.71-5.14,5.28-9.48,11.3-12.96,17.78-3.45,6.51-6.01,13.49-7.73,20.71-1.73,7.22-2.63,14.65-2.88,22.14-.07,1.87-.1,3.75-.09,5.64.02,1.88.07,3.71.17,5.57.2,3.7.69,7.36,1.34,10.98,1.43,7.21,3.79,14.23,7.4,20.51,3.58,6.29,8.32,11.9,14.12,16.03,5.77,4.15,12.56,6.79,19.59,7.48,3.51.35,7.07.23,10.58-.33.88-.1,1.75-.32,2.62-.5.88-.16,1.73-.41,2.59-.65l1.29-.36,1.33-.45,2.66-.9,1.33-.45c.22-.07.44-.16.66-.24l.31-.12.4-.16.8-.31,1.6-.62c1.08-.39,2.11-.86,3.14-1.33,0,0,.63-.22,1.67-.6,1.06-.36,2.45-1,4.12-1.66,3.24-1.44,7.22-3.49,10.04-5.76,2.33-1.97,3.47-3.6,4.13-4.59.64-.98.87-1.4,1.26-1.07.36.46.54,1.7.12,3.31-.4,1.61-1.39,3.48-2.75,5.27.19-.15-.57.81-1.93,2.21-1.38,1.35-3.39,3.08-5.56,4.56-2.15,1.54-4.44,2.82-6.16,3.81-1.75.91-2.92,1.52-2.92,1.52-1.1.52-2.22.92-3.33,1.36l-1.67.65-.42.16-.83.32-1.38.47-2.76.93c-.92.31-1.83.63-2.83.89-7.77,2.3-16.21,2.76-24.23.96-8.03-1.75-15.5-5.7-21.59-11.05-6.11-5.36-10.96-11.99-14.39-19.2-1.72-3.6-3.16-7.33-4.28-11.13-1.09-3.81-1.93-7.69-2.51-11.59-.51-3.91-.9-7.83-.93-11.76-.1-3.89,0-7.75.23-11.64.48-7.76,1.64-15.53,3.7-23.11,2.06-7.57,5.02-14.94,8.96-21.79,3.95-6.84,8.82-13.16,14.48-18.66,2.8-2.79,5.83-5.31,8.96-7.69l2.38-1.75c.8-.57,1.63-1.1,2.44-1.65,1.6-1.12,3.35-2.11,5.05-3.13,6.96-3.86,14.64-6.71,22.68-7.68,8.02-1.03,16.28-.27,23.97,2.17,7.69,2.45,14.88,6.43,20.94,11.82,3.02,2.7,5.81,5.71,8.1,9.19.59.85,1.11,1.77,1.64,2.68.47.94,1.02,1.91,1.36,2.84l1.14,2.82.56,1.41.43,1.47.86,2.94c.25.99.39,2.02.59,3.03l.28,1.52c.1.51.1,1.03.15,1.54.08,1.03.17,2.07.23,3.1.05,4.16-.51,8.36-1.76,12.35l-.51,1.58c-.18.52-.41,1.03-.62,1.54-.22.51-.42,1.03-.65,1.53l-.75,1.48c-.47,1-1.1,1.93-1.65,2.89-.63.92-1.24,1.85-1.95,2.73Z"/></g><g><path class="cls-1" d="m282.79,126.64s-30.26,7.07-26.94-22.8c3.33-29.88,55.52-30.44,64.3-25.09,0,0,22.93,5.69,13.25,24.03-9.69,18.34-37.18,11.95-37.18,11.95"/><path class="cls-5" d="m279.81,123.46c.16-.02.21-.03.45.12.78.41,1.82,1.15,2.34,2.23.56,1.06.56,2.61-1.28,4.47-.07.07-.4.32-.58.37-4.35.53-8.81.5-13.33-.65-1.7-.45-3.39-1.08-5.02-1.94-1.62-.87-3.15-2-4.5-3.33-1.36-1.33-2.42-2.92-3.32-4.55-.37-.84-.82-1.67-1.08-2.53l-.44-1.29c-.12-.43-.21-.86-.32-1.29-.8-3.46-.86-6.87-.6-10.15.26-3.28.96-6.87,2.48-10.01,1.48-3.18,3.59-6.03,6.03-8.41,2.44-2.39,5.2-4.34,8.07-5.96,5.78-3.14,11.95-5.12,18.17-6.33,6.23-1.23,12.52-1.76,18.87-1.64,3.18.07,6.36.31,9.62.89,1.66.34,3.28.66,5.13,1.43.22.08.49.23.73.35.1.05.33.17.18.1h0s.88.27.88.27c.82.26,1.61.54,2.39.86,3.11,1.26,6.13,2.92,8.83,5.33,1.34,1.21,2.58,2.63,3.58,4.28,1,1.65,1.73,3.54,2.05,5.48.33,1.95.27,3.91-.03,5.75-.31,1.85-.91,3.54-1.58,5.17-1.38,3.15-3.4,6.16-5.96,8.6-.37.35-.77.68-1.15,1.02l-.43.37-.83.62c-.55.43-1.12.81-1.71,1.17-1.16.74-2.38,1.37-3.61,1.92,0,0-.18.07-.52.2-.34.11-.83.27-1.45.47-1.24.35-2.99.8-5.01,1.05-4.03.56-9.02.36-12.97-.44-3.36-.58-5.45-1.34-6.6-1.92-1.16-.6-1.37-1.06-.96-1.32.79-.53,4.11-.51,8.03-.75-.42-.12,4.33-.09,8.85-1.11,2.26-.48,4.44-1.19,5.97-1.88,1.53-.68,2.47-1.24,2.47-1.24.8-.4,1.58-.83,2.3-1.31.38-.22.72-.5,1.07-.76.17-.13.36-.25.52-.39l1.06-.93c3.52-3.38,6.18-8.95,5.43-13.05-.34-2.08-1.53-3.98-3.36-5.63-1.82-1.64-4.18-2.98-6.67-3.98-.62-.25-1.26-.48-1.89-.68l-1.3-.39-.51-.26-.33-.16c-.1-.04-.15-.1-.29-.14-.94-.41-2.31-.72-3.62-.98-2.7-.48-5.58-.71-8.47-.77-5.78-.12-11.63.38-17.3,1.5-5.67,1.1-11.17,2.91-16.05,5.56-4.82,2.7-8.89,6.42-11.04,11.08l-.73,1.77-.53,1.85c-.19.61-.23,1.27-.35,1.91-.13.62-.18,1.32-.23,2.01-.22,2.76-.14,5.48.43,7.93l.22.91.3.86c.16.6.47,1.1.7,1.65.57,1.01,1.2,1.98,2.02,2.77.81.79,1.74,1.49,2.78,2.06,1.06.55,2.22.99,3.45,1.32,3.26.85,6.97.92,10.56.47Z"/></g><g><path class="cls-1" d="m261.58,159.67s-6.01,43.54,38,36.8c34.55-5.29,30.73-60.39,10.34-74.67"/><path class="cls-5" d="m257.74,162.02c.01-.19.02-.26.21-.5.56-.83,1.58-1.79,2.79-1.97,1.22-.13,2.55.45,3.99,2.3.05.07.24.39.26.54-.18,3.7.04,7.48.77,11.07.91,4.55,2.65,8.83,5.39,12.18,1.36,1.69,3.01,3.08,4.84,4.22.89.61,1.9,1.04,2.87,1.52,1.03.38,2.04.81,3.14,1.06,2.14.64,4.44.88,6.74,1.06,1.17,0,2.33.07,3.51.02,1.18-.09,2.36-.1,3.55-.24,1.18-.16,2.41-.27,3.54-.46l1.65-.34.83-.17.79-.25,1.59-.5c.52-.2,1.01-.44,1.52-.65,1.04-.38,1.94-1.02,2.91-1.53,1.8-1.24,3.57-2.57,4.98-4.29l.56-.61.5-.67,1-1.34c.57-.98,1.24-1.88,1.71-2.93,1.1-1.99,1.86-4.2,2.57-6.41.6-2.26,1.15-4.54,1.4-6.9.63-4.69.53-9.52-.09-14.27l-.1-.82c-.02-.14-.03-.28-.06-.41l-.15-.82-.29-1.64c-.23-1.09-.48-2.17-.74-3.24,0,0-.13-.64-.34-1.7-.09-.54-.24-1.18-.43-1.89-.19-.71-.35-1.53-.62-2.36-.94-3.39-2.59-7.53-4.43-10.75-.37-.7-.81-1.25-1.15-1.81-.34-.57-.7-1.03-1.01-1.46-.31-.44-.58-.83-.82-1.18-.26-.32-.48-.61-.65-.87-.7-1.05-.78-1.54-.29-1.63.46-.06,1.53.27,2.86,1.06.63.42,1.41.89,2.14,1.52.71.64,1.55,1.3,2.25,2.13-.05-.1.12.07.46.44.34.38.87.95,1.42,1.73.57.76,1.26,1.68,1.89,2.72.69,1.02,1.31,2.18,1.94,3.34.63,1.17,1.16,2.38,1.69,3.51.46,1.16.94,2.23,1.26,3.18.33.95.6,1.74.79,2.3.18.56.27.88.27.88.27,1.2.57,2.39.76,3.61l.32,1.81c.03.15.05.3.07.46l.11.86.25,1.97c.52,5.26.44,10.59-.36,15.88-.84,5.28-2.47,10.53-5.17,15.36-2.76,4.77-6.68,9.16-11.66,11.95-2.43,1.49-5.12,2.43-7.8,3.23-1.35.29-2.75.61-4.07.8-1.31.16-2.61.33-3.93.47-5.27.46-10.78.25-16.18-1.3-5.4-1.48-10.55-4.77-14.16-9.25-3.6-4.5-5.65-9.85-6.72-15.15-.86-4.28-1.11-8.56-.91-12.87Z"/></g><g><path class="cls-1" d="m242.39,37.55s-32.76,14.98-28.26,67.19"/><path class="cls-5" d="m238.93,35.97c.14-.08.19-.11.45-.09.86,0,2.02.26,2.71,1.03.64.81.83,2.01.24,3.86-.02.07-.15.35-.25.44-2.64,1.59-5.15,3.6-7.44,5.79-8.38,8.02-13.73,18.95-16.13,30.44-.17.89-.38,1.77-.52,2.66l-.42,2.69s-.13.55-.3,1.47c-.16.93-.47,2.22-.68,3.74-.23,1.51-.54,3.22-.73,4.97-.11.87-.23,1.75-.34,2.61-.09.86-.19,1.71-.27,2.52-.07.68-.14,1.31-.2,1.88-.04.57-.09,1.08-.14,1.55-.1.92-.22,1.64-.34,2.16-.26,1.05-.54,1.35-.86,1.09-.31-.26-.65-1.09-.97-2.29-.33-1.2-.67-2.77-.86-4.51-.03.18-.14-.77-.29-2.3-.09-1.53-.24-3.66-.25-5.81,0-1.08,0-2.16,0-3.18.05-1.02.09-1.98.13-2.8.04-.82.07-1.51.13-1.99.05-.48.07-.76.07-.76l.39-2.48.5-2.47c.28-1.57.74-3.1,1.12-4.65.48-1.53.88-3.08,1.45-4.58,1.03-3.03,2.33-5.98,3.8-8.84,2.95-5.72,6.81-11.01,11.49-15.51,2.59-2.47,5.38-4.73,8.53-6.63Z"/></g></g><g><g><path class="cls-1" d="m170.25,92.6s32.34-4.15,32.34-28.57c0-24.41-33.13-29.08-33.13-29.08,0,0-37.86-4.93-37.6,29.34.26,34.28,38.39,28.31,38.39,28.31Z"/><path class="cls-5" d="m173.49,95.71c-.19.04-.25.05-.53-.07-.94-.33-2.12-1.07-2.6-2.2-.44-1.14-.24-2.58,1.21-4.44.05-.07.32-.33.46-.39,3.67-.76,7.31-1.9,10.71-3.4,3.16-1.39,6.11-3.14,8.64-5.25,1.25-1.07,2.38-2.23,3.38-3.47.98-1.26,1.79-2.61,2.46-4.02.63-1.43,1.1-2.92,1.4-4.47.26-1.55.41-3.17.32-4.77,0-1.61-.32-3.16-.68-4.69-.44-1.5-1.03-2.95-1.79-4.33-3.11-5.51-8.98-9.52-15.38-12.16-3.21-1.34-6.6-2.38-10.02-3.12l-1.27-.25-.62-.11-.22-.03-.26-.03c-.81-.08-1.68-.13-2.54-.16-1.73-.06-3.47-.02-5.2.11-6.87.53-13.68,2.55-18.39,6.82-4.78,4.2-6.91,10.7-7.07,17.51-.23,6.85,1.28,13.67,5.48,18.36l.71.77c.09.09.16.19.26.27l.56.5c.37.34.73.68,1.15.97.78.63,1.64,1.17,2.52,1.7,0,0,.51.33,1.36.87.88.51,2.14,1.23,3.72,1.88,3.12,1.39,7.47,2.5,11.2,3.13,3.16.47,5.29.67,6.52.93,1.24.25,1.62.54,1.34.95-.61.81-3.98,1.84-8.24,2.12.45.08-4.65.42-9.95-.55-2.64-.46-5.31-1.26-7.26-2.08-.99-.37-1.78-.81-2.35-1.07-.56-.28-.87-.47-.87-.47-1.13-.68-2.19-1.49-3.23-2.33l-1.49-1.35c-.13-.11-.23-.24-.35-.36l-.91-.98c-.74-.76-1.33-1.65-1.99-2.48-2.41-3.5-3.92-7.5-4.68-11.48-.76-4.01-.89-7.96-.59-11.94.32-3.98,1.25-8.05,3.08-11.84.87-1.91,2.07-3.68,3.35-5.36,1.37-1.61,2.85-3.15,4.53-4.4,1.66-1.28,3.44-2.39,5.29-3.27,1.84-.92,3.75-1.63,5.67-2.2,3.85-1.17,7.78-1.71,11.69-1.92,1.96-.09,3.91-.08,5.88.04.5.03.99.07,1.51.12l.42.05.47.07.75.13c.98.18,1.93.38,2.87.61,3.77.89,7.46,2.1,11.04,3.68,1.79.78,3.55,1.67,5.26,2.69,1.71,1,3.38,2.12,4.96,3.41,1.58,1.27,3.09,2.68,4.43,4.27.7.77,1.3,1.64,1.92,2.48.56.9,1.16,1.77,1.62,2.72,2.02,3.74,2.96,8.04,3.04,12.19.09,4.14-.77,8.42-2.58,12.27-.91,1.93-2.08,3.7-3.37,5.35-1.32,1.63-2.8,3.08-4.36,4.41-3.15,2.61-6.63,4.63-10.22,6.21-3.94,1.74-8,3-12.18,3.88Z"/></g><path class="cls-5" d="m146.7,62.24c0-.08,0-.11.08-.21.21-.35.62-.77,1.12-.86.5-.07,1.06.15,1.69.88.02.03.11.16.12.22-.01,1.54.15,3.11.47,4.63.39,1.93,1.04,3.79,1.94,5.52.45.72.84,1.49,1.39,2.14,0,0,.14.22.38.59.21.4.65.84,1.08,1.41.9,1.13,2.28,2.36,3.51,3.31.5.44,1.01.67,1.37.94.37.25.65.47.85.64.4.36.47.54.29.63-.18.08-.62.03-1.22-.1-.3-.07-.65-.16-1.02-.27l-.58-.18-.59-.27c.16.1-1.8-.75-3.54-2.12-.47-.3-.83-.72-1.23-1.06-.37-.36-.77-.67-1.03-1-.55-.65-.92-1.08-.92-1.08-.54-.67-.91-1.45-1.37-2.18-1.05-2.01-1.8-4.15-2.25-6.33-.36-1.73-.54-3.48-.53-5.26Z"/><g><path class="cls-1" d="m209.15,142.47s-.55-9.86,6.93-27.1c7.48-17.25,5.27-38.88-19.68-34.22-24.95,4.65-33.26,20.53-55.44,16.97,0,0,13.03,4.93,12.75,29.29-.28,24.37-3.6,47.36,11.36,53.11,14.97,5.75,43.24,15.88,65.42-21.63,0,0,6.38-37.51-45.46-5.2"/><path class="cls-5" d="m212.85,140.2c-.01.16-.02.21-.21.41-.56.68-1.49,1.52-2.65,1.81-1.14.38-2.68.08-4.13-2.13-.05-.08-.23-.46-.25-.64.35-4.37,1.25-8.47,2.39-12.5.97-3.42,2.14-6.76,3.43-10.03l1.95-4.7c.56-1.48,1.07-2.97,1.49-4.49.83-3.03,1.33-6.13,1.36-9.15,0-3-.46-5.95-1.62-8.34-1.16-2.39-2.98-4.14-5.38-5.15-1.19-.53-2.54-.83-3.95-1-1.41-.2-2.91-.16-4.41-.08-1.52.14-3.03.32-4.61.68l-2.36.52c-.39.09-.79.17-1.18.27l-1.16.34-2.32.68c-.77.23-1.52.54-2.29.8-1.53.51-3.02,1.17-4.52,1.81-2.99,1.33-5.93,2.81-8.93,4.42-3.01,1.57-6.06,3.25-9.38,4.69-.81.38-1.66.71-2.52,1.03-.86.31-1.69.68-2.6.92l-2.68.78-2.77.55c-.91.22-1.88.25-2.78.35,0,0,0,0,0,0h-.02s.01,0,.02.02c0-.02.02.04-.02-.04l.34.5c.27.41.57.8.8,1.22.46.85.99,1.67,1.38,2.54.38.87.82,1.73,1.14,2.62l.93,2.67c1.05,3.6,1.6,7.25,1.87,10.87.09,1.8.11,3.62.14,5.39l-.1,5.16-.25,8.59c-.07,2.52-.13,5.03-.14,7.52-.02,3.77.05,7.51.41,11.12.37,3.59,1.01,7.12,2.31,10.08,1.29,2.98,3.22,5.2,5.91,6.45l1.06.46,1.33.51,2.64.97c1.75.62,3.51,1.2,5.26,1.71,7.01,2.05,14.23,2.88,21.09,1.61,3.42-.66,6.72-1.8,9.82-3.42,3.1-1.62,5.97-3.72,8.61-6.12,2.65-2.4,5.04-5.14,7.22-8.06l.83-1.09.78-1.13c.51-.76,1.05-1.5,1.54-2.28l1.37-2.21c.03-.05,0,0,.02-.06.03-.3.07-.79.09-1.18.16-3.32-.4-6.7-1.86-8.9-.73-1.11-1.64-1.92-2.82-2.46-1.17-.55-2.61-.81-4.15-.9-.8.04-1.58-.03-2.42.11l-.44.05-.77.08c-.52.08-1.05.2-1.57.3-1.05.16-2.11.53-3.17.79,0,0-.16.03-.44.09-.29.07-.71.18-1.23.32-.53.13-1.17.3-1.88.48-.72.22-1.52.46-2.37.72-3.42,1.08-7.75,2.68-11.34,4.12-1.52.61-2.78,1.11-3.8,1.52-1.03.4-1.85.66-2.47.82-1.25.3-1.72.16-1.61-.32.11-.48.8-1.28,1.89-2.28.54-.5,1.18-1.05,1.89-1.63.72-.57,1.53-1.14,2.37-1.75-.2.07.72-.58,2.25-1.57,1.57-.94,3.7-2.28,5.99-3.46,1.12-.63,2.3-1.19,3.41-1.71.56-.26,1.1-.52,1.61-.76.53-.22,1.03-.42,1.5-.61,1.84-.79,3.17-1.18,3.17-1.18.6-.16,1.2-.33,1.81-.48l1.88-.37.94-.18.98-.11.49-.05.79-.08c.51-.08,1.08-.05,1.61-.07,2.15-.08,4.47.21,6.74,1,2.27.78,4.49,2.23,6.1,4.14,1.62,1.9,2.64,4.11,3.26,6.27.61,2.17.88,4.32.91,6.43.02,1.06-.02,2.1-.11,3.17l-.04.4-.08.67c-.02.22-.06.45-.1.68-.03.23-.06.46-.21.65-.22.39-.49.8-.67,1.11l-.38.61c-1.98,3.3-4.26,6.47-6.74,9.49-2.5,3.01-5.26,5.86-8.38,8.36-3.11,2.5-6.54,4.68-10.27,6.31-3.71,1.64-7.68,2.73-11.7,3.25-8.07,1.01-16.12-.3-23.48-2.61-1.85-.58-3.66-1.2-5.45-1.86l-2.65-1-.33-.13-.39-.17-.78-.34c-.52-.21-1.02-.51-1.53-.78-2-1.14-3.81-2.7-5.23-4.48-1.43-1.79-2.48-3.76-3.27-5.74-1.57-3.98-2.21-7.97-2.59-11.85-.37-3.89-.43-7.71-.41-11.48.01-2.58.08-5.14.15-7.68l.25-8.57.1-5.07c-.02-1.64-.04-3.23-.12-4.83-.24-3.17-.72-6.3-1.58-9.25l-.75-2.15c-.25-.72-.61-1.37-.9-2.06-.3-.69-.71-1.29-1.05-1.95-.17-.33-.4-.6-.6-.91l-.38-.56c-.14-.23-.28-.38-.42-.55-.13-.17-.28-.33-.47-.5l-2.08-1.98-.52-.5c-.1-.08-.15-.16-.28-.25l-.43-.26c-.27-.17-.6-.35-.82-.51l.11-.4.61-2.28.43-1.61.35-1.33.19-.71.09-.35.05-.18.02-.09s.11,0,.16,0l2.9.24c.96.07,1.96.19,2.83.17.44,0,.92.04,1.34,0l1.27-.12c.79-.09,1.53-.09,2.28-.28l2.25-.44,2.22-.65c.74-.18,1.48-.52,2.21-.78.74-.27,1.47-.55,2.21-.9,5.87-2.57,11.78-6.27,18.3-9.1,1.64-.69,3.27-1.41,4.97-1.99.85-.29,1.68-.63,2.54-.89l2.59-.76,1.29-.38,1.31-.3,2.63-.58c1.75-.39,3.63-.64,5.5-.8,1.89-.11,3.82-.15,5.8.11,1.97.23,3.98.68,5.92,1.52,1.94.82,3.79,2,5.35,3.51,1.57,1.5,2.81,3.29,3.72,5.16,1.81,3.78,2.34,7.76,2.34,11.55-.04,3.8-.65,7.48-1.62,11.03-.49,1.77-1.08,3.51-1.73,5.21l-1.97,4.74c-1.21,3.07-2.3,6.17-3.18,9.31-1.04,3.68-1.84,7.45-2.13,11.08Z"/></g><path class="cls-5" d="m161.41,115.83c-.02-.14-.02-.19.1-.4.34-.7.97-1.6,1.9-1.98.93-.39,2.16-.27,3.66,1.15.05.05.26.3.3.44.44,3.34.81,6.68,1.11,10.03.17,1.87.31,3.75.43,5.63.13,1.87.23,3.75.3,5.63,0,0-.06,2.33-.3,5.47-.22,3.14-.76,7.11-1.49,10.32-.32,1.37-.61,2.48-.89,3.37-.32.89-.61,1.56-.85,2.03-.49.95-.85,1.13-1.07.8-.47-.69-.42-3.42-.48-6.72-.1.33-.03-3.6-.27-7.65-.06-1.01-.13-2.03-.19-2.98-.08-.96-.16-1.85-.23-2.62-.06-.77-.12-1.41-.18-1.86-.05-.45-.08-.71-.08-.71-.06-1.56-.15-3.13-.26-4.69-.12-1.83-.27-3.66-.44-5.48-.3-3.27-.66-6.54-1.09-9.78Z"/></g><g><g><path class="cls-1" d="m15.6,136.93S-26.37,58.18,46.71,29.33c57.94-22.87,91.82,38.78,94.48,45.41,4.01,10.01,25.26,67.37-19.2,105.29-28.33,24.17-61.59,17.94-81.99,10.24-16-6.04-27.12-20.87-27.42-37.78-.16-9.05,2.49-18.69,11.4-26.36,23.75-20.46,47.49.5,47.49.5"/><path class="cls-5" d="m17.76,133.1c.07.15.09.21.03.49-.13.91-.54,2.16-1.44,2.95-.89.82-2.36,1.18-4.63.07-.08-.04-.42-.26-.52-.41-.1-.23-2.1-4.34-4.35-10.61-.07-.2-.14-.4-.21-.6l-.16-.47c-.36-1.08-.75-2.15-1.08-3.25-1.39-4.38-2.6-8.9-3.51-13.59-1.78-9.36-2.6-19.39-1.09-29.62.31-2.56.93-5.1,1.53-7.65.38-1.26.77-2.52,1.15-3.79.37-1.27.94-2.48,1.41-3.73.25-.62.48-1.25.75-1.86l.9-1.8.9-1.81.46-.9.53-.86c.71-1.15,1.42-2.31,2.13-3.47.79-1.1,1.62-2.19,2.44-3.28,3.39-4.26,7.29-8.23,11.74-11.48,2.14-1.76,4.51-3.15,6.84-4.66l.88-.56.91-.49,1.83-.97c1.22-.64,2.44-1.31,3.68-1.93,9.91-4.71,21.08-8.09,32.72-8.15,5.8-.01,11.64.76,17.28,2.33,5.64,1.56,11.07,3.9,16.13,6.81,10.14,5.86,18.87,13.85,26.2,22.85,3.68,4.51,7.03,9.26,10.01,14.31.74,1.27,1.47,2.54,2.15,3.89.17.33.34.68.51,1.03.17.34.34.7.51,1.11.19.42.3.73.44,1.08l.4,1.02c1.04,2.73,1.98,5.48,2.81,8.27,1.67,5.57,3,11.23,3.9,16.98.92,5.74,1.44,11.55,1.45,17.38.06,11.64-1.91,23.39-6.36,34.16-2.21,5.38-5.02,10.5-8.32,15.23-3.34,4.71-7.17,9-11.29,12.88-1.05.95-2.1,1.9-3.15,2.85-1.12.87-2.24,1.75-3.35,2.62-2.17,1.83-4.63,3.25-6.99,4.79l-.89.57-.93.5-1.87.98-1.87.98c-.62.32-1.24.67-1.89.91-2.6,1.06-5.14,2.23-7.82,2.98-10.6,3.48-21.7,4.14-32.2,3.15-5.26-.52-10.39-1.51-15.37-2.75-1.24-.34-2.47-.67-3.7-1.01-1.21-.38-2.42-.76-3.63-1.14-1.21-.36-2.38-.83-3.57-1.24-.59-.22-1.17-.4-1.78-.66l-1.81-.76c-9.65-4.11-17.48-11.48-22.24-20.15-2.4-4.33-4.01-9.01-4.78-13.74-.77-4.75-.79-9.45-.04-14.04.74-4.59,2.4-9,4.74-12.85,1.19-1.91,2.55-3.68,4.01-5.31,1.49-1.58,3.06-3.09,4.7-4.34,3.24-2.6,6.79-4.75,10.54-6.25.94-.36,1.89-.69,2.84-.99.97-.25,1.91-.57,2.88-.73.33-.07.66-.13.98-.2.7-.16,1.38-.21,1.99-.3.62-.09,1.19-.15,1.7-.17,1.03-.08,1.84-.11,2.39-.09.55,0,.85,0,.85,0,0,0,.19.01.54.04.35.04.86.11,1.49.19,1.27.17,3.02.52,4.97,1.09,3.91,1.11,8.43,3.37,11.66,5.82,2.79,1.99,4.32,3.63,5.08,4.69.76,1.07.72,1.58.23,1.61-.94.1-3.85-1.45-7.46-2.9.33.27-3.9-1.77-8.43-2.67-2.25-.48-4.53-.69-6.23-.73-1.7-.02-2.82.1-2.82.1,0,0-.23,0-.66,0-.43.03-1.07.06-1.87.13-.4.05-.84.11-1.33.17-.24.02-.49.07-.75.13-.13.03-.26.05-.39.08l-.58.12c-.36.06-.71.16-1.07.26-.71.19-1.43.38-2.13.65-2.83.98-5.62,2.45-8.28,4.37-2.67,1.95-5.2,4.16-7.19,6.86-1.03,1.33-1.92,2.78-2.68,4.31-.76,1.53-1.41,3.15-1.87,4.86-.94,3.4-1.36,7.13-1.1,10.92.37,7.54,3.31,15.26,8.57,21.57,2.61,3.16,5.82,5.92,9.43,8.16.91.55,1.81,1.12,2.78,1.57l1.43.73,1.49.63c.5.21.98.43,1.51.62l1.62.58c1.08.39,2.16.79,3.27,1.12,4.39,1.46,8.93,2.59,13.57,3.43,4.64.89,9.39,1.31,14.18,1.4,1.2,0,2.4,0,3.6,0,1.2-.08,2.4-.16,3.6-.24l1.81-.13,1.79-.26c1.2-.18,2.4-.33,3.6-.54,1.18-.27,2.37-.54,3.56-.81.59-.14,1.2-.24,1.78-.43l1.75-.55c1.16-.38,2.34-.71,3.5-1.13,1.13-.47,2.27-.94,3.41-1.41.57-.24,1.15-.46,1.71-.72l1.64-.86c1.1-.57,2.2-1.15,3.3-1.72,1.06-.64,2.1-1.35,3.16-2.02,1.04-.7,2.14-1.3,3.11-2.12,4.03-3,7.88-6.42,11.36-10.17,6.88-7.58,12.31-16.6,15.5-26.56,3.21-9.95,4.32-20.66,3.67-31.35-.63-10.69-2.85-21.41-6.38-31.63-.44-1.28-.91-2.54-1.39-3.8l-.37-.94c-.12-.26-.2-.48-.34-.76-.26-.56-.55-1.13-.87-1.71-1.23-2.32-2.63-4.64-4.1-6.89-2.94-4.51-6.24-8.81-9.78-12.84-7.13-8.02-15.44-14.96-24.76-19.63-9.3-4.69-19.61-6.93-29.75-6.23-5.07.36-10.07,1.36-14.92,2.81-1.2.42-2.39.84-3.59,1.26-.6.22-1.2.41-1.79.64l-1.75.77c-1.17.51-2.33,1.02-3.49,1.52l-.87.38-.84.44-1.67.88c-1.11.59-2.22,1.16-3.31,1.77-1.05.67-2.09,1.34-3.13,2.01l-1.56,1c-.51.35-.98.74-1.47,1.11-.97.75-1.94,1.49-2.91,2.23-.92.79-1.79,1.64-2.69,2.45l-1.33,1.22-1.21,1.33c-.79.9-1.63,1.75-2.38,2.67-.71.95-1.42,1.9-2.13,2.85-2.67,3.89-4.91,8.03-6.45,12.41-1.53,4.38-2.52,8.9-3.06,13.45-.94,9.12-.16,18.23,1.71,26.84.92,4.31,2.08,8.51,3.44,12.56.24.7.48,1.39.71,2.07.07.19.13.37.2.55,2.11,5.85,3.95,9.63,4.04,9.83Z"/></g><g><path class="cls-4" d="m94.58,99.77c-.49-.99-1.02-1.99-1.6-2.96-.9-1.5-1.22-3.31-.64-4.96.79-2.25,2.82-4.46,7.99-2.18,8.87,3.91,11.13,27.38,2.26,33.35-5.87,3.94-6.03-3.69-5.53-9.58.4-4.7-.41-9.43-2.48-13.67Z"/><path class="cls-3" d="m94.58,99.77c-.29-1.11-.58-2.16-.85-3.18-.29-.95-.35-1.79-.21-2.55.13-.78.44-1.31.87-1.85.43-.53.88-.76,1.22-.77.33-.02.73.03,1.33.22.59.19,1.31.5,2.08.92,1.01.61,2.13,1.85,3.14,3.74.32.65.76,1.52,1.23,2.92.45,1.4.98,3.32,1.25,6.01.05.56.13,1.51.15,2.32.04.81.02,1.47.02,1.47,0,0-.02.56-.08,1.26-.06.7-.16,1.55-.25,2.14-.52,3.47-1.77,5.85-2.92,7.01-.15.13-.28.29-.43.4-.15.1-.28.21-.41.32-.06.04-.12.08-.17.11h0s0,0,0,0c0,0,0,.01-.02.02h-.02s-.01,0-.01,0c0,0,0,.01-.01-.02l-.03-.13c-.19-.77-.31-1.79-.39-2.74-.08-.97-.13-1.95-.17-2.92-.02-.51-.04-1.03-.06-1.53-.03-.55-.07-1.09-.15-1.62-.55-4.24-2.2-8.1-5.08-11.57.91,4.43.65,8.01.08,11.53-.07.44-.16.88-.25,1.32l-.14.68-.15.78c-.19,1.06-.33,2.16-.4,3.36-.06,1.21-.08,2.45.17,4.01l.05.31.1.42c.07.29.14.58.24.86.09.29.19.57.32.84.11.28.25.54.4.8.59,1.03,1.49,1.87,2.6,2.37,1.1.47,2.64.72,4.4.07.44-.14.89-.35,1.35-.59.46-.22.81-.46,1.21-.71.31-.24.63-.48.97-.74.32-.27.61-.57.93-.87,2.45-2.51,4.11-6.27,4.79-10.71.13-.77.25-1.85.31-2.73.06-.88.06-1.57.06-1.57,0,0,.05-.82.02-1.82,0-.99-.09-2.16-.18-2.84-.33-3.29-.99-5.69-1.58-7.51-.61-1.82-1.22-3.04-1.71-3.97-.75-1.36-1.64-2.62-2.73-3.72-1.08-1.09-2.41-2.02-3.88-2.58-1.22-.44-2.5-.78-3.92-.85-.7-.04-1.47.02-2.22.17-.77.19-1.54.47-2.22.94-1.39.92-2.16,2.31-2.5,3.52-.36,1.2-.4,2.63-.05,3.8.32,1.19,1,2.24,1.77,3.04.69.76,1.41,1.56,2.17,2.39Z"/></g><path class="cls-5" d="m36,57.03c-.09.08-.13.11-.34.12-.68.09-1.65.06-2.42-.42-.79-.45-1.38-1.44-1.04-3.33.01-.07.11-.36.19-.47,2.39-2.09,4.91-3.95,7.53-5.67,5.92-3.82,12.42-6.82,19.34-8.53,3.46-.85,7.01-1.38,10.58-1.54,3.58-.14,7.17.12,10.7.72.87.17,1.75.32,2.61.51l2.57.67s.13.04.37.12c.24.07.58.21,1,.39.84.37,2.04.81,3.35,1.47,1.3.68,2.79,1.39,4.17,2.31.7.44,1.4.88,2.07,1.33.64.49,1.27.97,1.87,1.43.5.38.96.73,1.38,1.05.39.35.74.67,1.05.96.62.59,1.06,1.06,1.37,1.43.61.75.64,1.11.28,1.18-.37.07-1.13-.14-2.14-.54-.5-.2-1.06-.45-1.66-.73-.6-.28-1.28-.54-1.96-.85.12.1-.62-.24-1.8-.8-.6-.25-1.32-.54-2.09-.86-.77-.32-1.59-.67-2.45-.93-.85-.28-1.7-.57-2.5-.84-.81-.22-1.58-.42-2.23-.59-.65-.19-1.2-.31-1.59-.37-.39-.07-.61-.12-.61-.12-.66-.17-1.32-.36-1.98-.5l-2-.38c-3.15-.53-6.35-.77-9.54-.64-3.19.15-6.38.62-9.5,1.39-6.25,1.54-12.22,4.28-17.68,7.81-2.41,1.58-4.75,3.31-6.89,5.2Z"/></g><path class="cls-5" d="m387.77,85.18c1.37.92,2.16,1.46,3.56,1.47.75,0,3.04.05,5.06.47,2.03.38,3.71,1.09,3.71,1.09,0,0,.1.05.29.13.18.08.45.19.76.36.63.3,1.43.8,2.21,1.39,1.59,1.16,2.79,2.94,3.15,3.54.69,1.11,1.46,1.56,2.93,2.37.61-1.5.83-2.67.01-4.11-.22-.38-.69-1.16-1.39-2.01-.7-.85-1.61-1.78-2.6-2.52-.98-.74-1.99-1.36-2.76-1.72-.38-.2-.7-.34-.93-.44-.22-.1-.35-.15-.35-.15,0,0-.51-.21-1.3-.5-.8-.28-1.9-.59-3.06-.82-2.33-.49-4.89-.54-5.73-.51-1.56.05-2.46.7-3.54,1.95Z"/><path class="cls-5" d="m401.87,36.83c4.45.78,7.36,1.33,12.53,1.55.87.05,2.3.1,5.25.37,1.76.16,4.7.49,7.19.91,2.49.4,4.52.85,4.52.85,0,0,1.7.36,3.85.93,2.15.54,4.71,1.4,6.51,2.05,3.67,1.36,5.81,2.49,6.93,3.05,1.12.58,2.11,1.11,3.06,1.6.91.46,1.78.9,2.67,1.35,1.72.85,3.37,1.66,5.38,2.72-1.26-1.86-2.46-3.4-3.94-4.77-.74-.69-1.53-1.37-2.45-2-.91-.67-1.95-1.28-3.14-1.93-1.19-.61-3.46-1.82-7.32-3.25-1.9-.69-4.58-1.58-6.82-2.14-2.24-.59-4.01-.95-4.01-.95,0,0-2.11-.47-4.69-.89-2.58-.44-5.62-.79-7.43-.94-3.04-.27-4.51-.32-5.41-.36-5.32-.17-8.38.46-12.68,1.86Z"/><g><polygon class="cls-2" points="507.51 83.47 517.47 132.68 470.87 128.63 470.28 92.45 507.51 83.47"/><g><g><path class="cls-1" d="m460.2,107.16s-17.63-46.43,22.53-51.91c11.05-1.51,19.9-1.72,26.92-1.24,12.62.87,21.2,12.88,18.15,25-3.54,14.07-5.3,33.78,6.18,48.46,0,0,27.42-13.54,27.1,24.83-.33,38.37-32.32,37.08-42.44,15.48,0,0-7.83,34.82-58.11,12.25-49.38-22.17-21.6-66.73-11.01-70.45.34-.12.68-.24,1-.41,3.28-1.74,24.41-11.29,50.48,14.76l-2.29-32.89"/><path class="cls-5" d="m460.2,107.16c-.42-4.48-.42-8.18-.5-11.97-.04-3.79-.17-7.7.17-12.53.12-1.76.41-4.75,1.53-8.03.14-.41.29-.82.44-1.25l.03-.08s.07-.2.12-.29l.29-.65c.2-.43.37-.88.6-1.29.47-.82.91-1.68,1.5-2.43,2.15-3.18,5.36-5.64,9.17-7.35.24-.11.47-.23.71-.33l.75-.27,1.5-.54c1.02-.34,2.09-.56,3.14-.86,1.08-.22,2.19-.39,3.28-.59,1.14-.17,2.34-.32,3.52-.46,4.73-.56,9.53-.93,14.33-1.01,2.4-.04,4.79,0,7.18.12.57.04,1.23.05,1.74.12l1.53.19c1,.23,2.01.43,2.95.83,1.91.72,3.69,1.77,5.21,3.12,1.5,1.37,2.76,3,3.69,4.78,1.92,3.56,2.3,7.74,1.44,11.53-.27,1.16-.53,2.31-.79,3.46-.23,1.18-.51,2.34-.69,3.51-.21,1.17-.41,2.33-.55,3.49-.17,1.16-.31,2.32-.41,3.47-.92,9.2-.06,18.18,2.65,25.71.36.93.69,1.86,1.07,2.75.42.88.83,1.74,1.23,2.59.4.85.92,1.62,1.36,2.41.23.39.46.78.68,1.16.42.6.84,1.19,1.26,1.77.85,1.19,1.68,2.36,2.49,3.5.02.06.07.03.11,0l.13-.06.27-.13.54-.25c.36-.17.72-.34,1.07-.5.7-.31,1.45-.66,1.99-.84l.44-.16.22-.08.11-.04.45-.14c.3-.1.6-.17.89-.26.59-.15,1.16-.28,1.72-.39,1.81-.33,3.57-.41,5.19-.22,1.61.21,3.06.7,4.3,1.45,2.5,1.49,4.21,4.11,5.31,7.03,2.12,5.94,2.22,12.49,1.99,18.07-.21,2.79-.49,5.44-1.08,7.83-.12.61-.27,1.2-.45,1.76-.17.57-.32,1.13-.51,1.68-.41,1.06-.77,2.11-1.26,3.04-.91,1.9-1.97,3.55-3.17,4.84-1.19,1.31-2.43,2.38-3.74,3.09-2.58,1.52-5.17,1.93-7.34,1.95-2.19-.03-3.98-.47-5.33-.95-1.37-.46-2.32-.95-2.93-1.29-.63-.31-.9-.51-.9-.51,0,0-.1-.06-.55-.35-.22-.14-.54-.33-.93-.64-.4-.31-.93-.67-1.54-1.23-.63-.52-1.34-1.23-2.15-2.13-.2-.23-.4-.47-.61-.73-.11-.13-.22-.25-.33-.39-.21-.32-.42-.64-.63-.97-.44-.68-.9-1.38-1.37-2.11-.24-.33-.48-.81-.72-1.28-.24-.47-.49-.95-.74-1.44-.97-1.89-2.01-3.91-3.13-6.08-.13-.25-.26-.5-.39-.76l-.1-.2s-.03-.07-.05-.09l-.03.13-.14.53c-.19.74-.39,1.49-.59,2.26-.4,1.53-.82,3.12-1.25,4.75-.21.74-.42,1.49-.64,2.25-.26.63-.53,1.28-.8,1.93-.26.64-.61,1.28-.9,1.8-.14.27-.31.53-.47.8-.65,1.07-1.42,2.16-2.35,3.21-.59.71-1.66,1.83-3.3,3.11-1.65,1.27-3.93,2.65-6.93,3.66-2.99,1.02-6.73,1.56-10.98,1.45-4.25-.11-9.01-.91-14.03-2.35-5-1.44-10.37-3.52-15.66-6.1-5.24-2.6-10.47-5.88-14.75-10.28-2.14-2.19-3.98-4.67-5.5-7.36-1.53-2.69-2.53-5.66-3.14-8.75-1.19-6.19-.38-12.9,1.93-19.16,1.15-3.13,2.66-6.17,4.47-8.99.92-1.4,1.89-2.76,2.96-3.99,1.04-1.26,2.2-2.39,3.34-3.27.29-.23.57-.44.84-.59l.4-.25c.12-.06.23-.09.34-.15l.16-.08.08-.04.22-.09.92-.38c.36-.15.48-.22.65-.3.17-.08.32-.17.5-.24,1.39-.64,2.93-1.12,4.48-1.5,3.12-.74,6.36-.95,9.56-.76,6.41.57,12.6,2.78,18.05,6.05,1.35.85,2.66,1.75,3.97,2.61,1.29.9,2.49,1.94,3.73,2.88l1,.79c.16.12.31.25.46.39l.88.81c.56.51,1.12,1.02,1.67,1.52,2.19,1.99,4.29,3.89,6.26,5.68.49.45.98.88,1.45,1.32l.35.32.18.16s.03.03.04.03v-.06s-.01-.12-.01-.12c-.02-.32-.04-.63-.07-.94-.09-1.24-.17-2.44-.25-3.59-.32-4.57-.59-8.29-.77-10.86-.07-.87-.13-1.72-.2-2.54-.06-.62-.12-1.22-.18-1.81-.12-1.18-.26-2.3-.41-3.37-.3-2.15-.66-4.13-1.08-6.05-.84-3.84-1.93-7.45-3.32-11.74-.78,4.44-1.37,8.17-1.67,12.09-.15,1.96-.23,3.97-.23,6.15,0,1.09.02,2.21.06,3.4.05.98.09,2.01.14,3.1,0,.01-.04-.07,0-.03l.05.04c-1.36-1.05-2.67-2.17-4.1-3.17-1.47-.96-2.93-1.96-4.44-2.91-6.13-3.68-13.35-6.33-21.06-7-3.86-.24-7.8.01-11.67.93-1.93.47-3.83,1.07-5.72,1.93-.23.1-.48.23-.72.34-.24.12-.52.26-.58.27-.11.04-.22.08-.33.13l-.78.34c-.3.13-.61.27-.89.42l-.75.46c-.52.3-.96.63-1.38.96-1.71,1.33-3.13,2.76-4.4,4.28-1.3,1.5-2.43,3.09-3.5,4.71-2.1,3.27-3.83,6.73-5.16,10.36-2.66,7.21-3.69,15.2-2.22,22.82.74,3.79,2,7.47,3.86,10.76,1.85,3.28,4.08,6.27,6.6,8.84,5.04,5.16,10.91,8.8,16.64,11.64,1.44.7,2.86,1.41,4.28,1.98,1.42.59,2.79,1.23,4.21,1.73,2.8,1.09,5.57,2.02,8.3,2.82,5.46,1.57,10.78,2.48,15.73,2.61,4.95.13,9.52-.51,13.32-1.8,3.81-1.28,6.8-3.08,8.94-4.74,2.14-1.67,3.52-3.14,4.28-4.05,1.19-1.36,2.18-2.75,3.01-4.12.21-.34.42-.68.6-1.02.05-.09.02-.04.03-.05h0s0,0,0,0c-.02-.03.04.05.08.12l.05.07c.14.17.28.34.42.5.27.32.54.64.79.93,1.05,1.16,1.96,2.07,2.78,2.75.79.72,1.48,1.2,2.01,1.6.52.41.94.66,1.23.85.59.37.73.46.73.46,0,0,.36.26,1.2.68.82.45,2.09,1.1,3.96,1.74,1.85.65,4.34,1.28,7.49,1.32,1.57-.03,3.31-.13,5.15-.6,1.85-.4,3.78-1.18,5.69-2.28,3.82-2.2,7.35-6.01,9.62-10.86.62-1.2,1.07-2.48,1.57-3.79.23-.66.41-1.34.61-2.02.22-.68.39-1.38.54-2.09.7-2.83,1.02-5.83,1.25-8.98.14-3.15.16-6.4-.12-9.88-.32-3.47-.89-7.17-2.29-10.99-.76-1.9-1.62-3.85-3-5.68-1.33-1.83-3.07-3.55-5.19-4.82-2.11-1.28-4.55-2.07-6.99-2.38-2.44-.29-4.89-.15-7.27.28-.73.14-1.48.3-2.24.5-.38.11-.76.21-1.14.33-.28.09-.56.18-.84.27-.15.05-.09.03-.1.04h0c-.08-.11-.15-.22-.23-.33-.05-.07-.06-.08-.14-.21-.19-.32-.38-.65-.57-.98-.37-.66-.81-1.3-1.14-2.02-.34-.71-.69-1.44-1.04-2.18-.32-.75-.59-1.55-.91-2.33-2.3-6.4-3.12-14.3-2.28-22.74.09-1.05.21-2.12.38-3.19.13-1.07.32-2.15.51-3.23.17-1.08.43-2.17.64-3.26.25-1.11.51-2.22.77-3.35,1.24-5.31.67-11.26-2.03-16.28-1.31-2.51-3.08-4.81-5.21-6.73-2.15-1.91-4.67-3.41-7.37-4.43-1.34-.55-2.76-.86-4.17-1.16l-2.14-.27c-.72-.09-1.3-.1-1.96-.14-2.56-.13-5.11-.17-7.65-.13-5.08.09-10.1.48-15.02,1.06-1.24.15-2.44.29-3.68.48-1.28.23-2.55.43-3.81.69-1.26.34-2.52.62-3.75,1.02l-1.84.66-.92.33c-.3.13-.6.27-.89.41-4.76,2.11-9.12,5.44-11.99,9.68-.77,1.02-1.36,2.13-1.97,3.22-.3.54-.52,1.12-.79,1.67l-.38.84c-.06.11-.14.33-.15.37l-.04.1c-.19.54-.38,1.06-.56,1.58-1.38,4.15-1.69,7.67-1.82,9.72-.33,5.64.49,9.96,1.7,13.84,1.25,3.87,2.95,7.36,5.43,11.14Z"/></g><g><path class="cls-4" d="m481.59,162.93s-22.37-3.45-21.48-20.83c.9-17.38,16.23-2.29,21.72,3.79,4.53,5.01,10.01,14.63-.24,17.04Z"/><path class="cls-3" d="m481.59,162.93c-4.08-1.89-7.13-3.95-9.99-6.16-2.78-2.27-5.49-4.73-7.09-8.51-.27-.64-.58-1.5-.8-2.83-.05-.33-.12-.69-.13-1.09-.03-.4-.07-.82-.05-1.3-.02-.91.1-2.12.3-3.26.13-.52.36-1.45.61-1.84.12-.18.2-.34.25-.36.04-.08.06-.07.06-.07,0,0,.02,0,.04-.03.04.02.04-.02.12-.02.11-.04.66,0,1.15.14.6.16,1.29.47,1.94.83.65.34,1.29.76,1.89,1.16,1.2.82,2.25,1.67,3.16,2.45,1.82,1.57,3.11,2.85,3.98,3.73.87.89,1.7,1.74,2.49,2.55.73.76,1.4,1.52,2.01,2.26,1.23,1.49,2.26,2.93,3.01,4.34.72,1.42,1.22,2.74.89,4.12-.29,1.43-1.86,2.87-3.85,3.88,1.13,0,2.24-.1,3.34-.45,1.09-.34,2.18-.96,3-1.96.83-.98,1.34-2.26,1.51-3.49.18-1.24.1-2.46-.11-3.61-.44-2.3-1.36-4.41-2.61-6.47-.63-1.03-1.35-2.05-2.19-3.06-.82-.98-1.66-1.91-2.62-2.9-.94-.97-2.33-2.36-4.39-4.15-1.03-.89-2.24-1.88-3.73-2.91-.76-.51-1.56-1.04-2.52-1.55-.94-.51-1.99-1.02-3.33-1.39-1.04-.31-2.8-.62-4.51-.22-.84.16-1.58.54-2.07.8-.47.31-.75.52-.75.52,0,0-.35.23-.78.68-.48.44-.94,1.08-1.37,1.8-.84,1.44-1.16,2.96-1.36,3.86-.15.89-.29,1.73-.33,2.46-.03.37-.06.74-.08,1.09,0,.36,0,.71-.01,1.05-.02.67.03,1.3.08,1.89.03.59.12,1.13.21,1.64.34,2.02.84,3.37,1.27,4.36,1.26,2.95,3.14,5.14,5.04,6.75,1.92,1.61,3.92,2.68,5.89,3.47,3.97,1.52,7.92,2.04,12.43,1.79Z"/></g><g><path class="cls-1" d="m446.55,130.22s-9.96,19.88,8.3,33.4"/><path class="cls-5" d="m446.54,130.22c-1.4,1.78-2.18,3.18-2.81,5.79-.09.45-.27,1.17-.48,2.7-.2,1.44-.38,3.9-.2,5.99.07,1.05.21,1.99.33,2.68.14.68.22,1.11.22,1.11,0,0,.3,1.43.92,3.18.61,1.76,1.67,3.77,2.57,5.1.54.89,1.1,1.52,1.48,2.06.43.5.75.87.97,1.12,1.84,1.99,3.25,2.75,5.3,3.66-1.4-1.78-2.32-2.92-4.03-4.8-.2-.24-.5-.59-.91-1.06-.35-.51-.88-1.1-1.38-1.93-.84-1.25-1.83-3.11-2.4-4.75-.58-1.63-.86-2.96-.86-2.96,0,0-.08-.4-.2-1.03-.1-.64-.23-1.53-.3-2.51-.17-1.96,0-4.28.19-5.64.2-1.45.36-2.14.44-2.56.58-2.49.74-3.94,1.14-6.16Z"/></g><g><path class="cls-1" d="m518.46,71.2s-10.58,33.6,3.32,57.78"/><path class="cls-5" d="m518.46,71.2c-2.26,3.92-3.49,6.8-4.36,12.06-.13.89-.38,2.34-.7,5.39-.17,1.64-.39,4.42-.46,6.79-.07,2.37-.03,4.33-.03,4.33,0,0,.01,1.64.13,3.74.09,2.1.4,4.65.64,6.46.6,4.07,1.32,6.54,1.65,7.83.75,2.6,1.61,4.56,2.65,6.29,1.02,1.74,2.25,3.24,3.78,4.89-.58-2.19-1.01-3.98-1.47-5.85-.47-1.86-.99-3.79-1.67-6.24-.31-1.22-.97-3.54-1.54-7.42-.23-1.73-.53-4.15-.62-6.16-.12-2.01-.14-3.59-.14-3.59,0,0-.03-1.89.04-4.17.08-2.29.29-4.97.44-6.56.3-2.94.54-4.35.66-5.22.8-5.11.83-8.07.99-12.58Z"/></g></g></g></g></g></svg>